<svg width="386" height="121" viewBox="0 0 386 121"
     fill="none"
     shape-rendering="geometricPrecision"
     xmlns="http://www.w3.org/2000/svg"
     style="image-rendering: auto; transform: translateZ(0); will-change: transform, opacity;">
  <g opacity="0.9">
    <path d="M69.246 2.84158L70.1724 7.18009L69.4313 7.36536C68.227 5.79053 60.5689 5.51264 56.3231 5.51264H7.61125C7.51862 14.2823 7.05543 23.3144 7.05543 32.0841H39.8182C43.6935 32.0841 55.2269 31.9915 58.5464 31.1577C58.3611 32.1767 58.3611 32.9179 58.3611 33.8288C58.3611 34.6625 58.3611 35.4962 58.5464 36.4998C55.2269 35.4808 43.6935 35.4808 39.8182 35.4808H7.05543C7.05543 45.3467 7.51862 55.3207 7.61125 65.0939H53.8373C62.9775 65.0939 68.4122 65.0013 70.9135 62.3302L71.4693 62.7008L69.3541 67.3172C68.7982 68.5215 68.4277 68.6141 67.1462 68.6141C55.1497 68.6141 41.1305 68.3362 31.2492 68.3362C21.9237 68.3362 9.66471 68.5215 0.246582 68.6141C0.524494 62.6236 1.08032 53.0202 1.08032 34.9404C1.08032 12.6148 0.617132 7.99838 0.246582 2.10046C9.92719 2.1931 22.4796 2.37841 32.1756 2.37841C40.8526 2.37841 54.8718 2.10046 68.1652 2.10046C68.8137 2.10046 69.1842 2.28576 69.2769 2.84158" fill="#8E887E" fill-opacity="0.35"/>
    <path d="M174.93 35.0479C174.93 20.8435 166.439 5.62012 138.848 5.62012C128.704 5.62012 112.925 5.80542 102.766 6.08334C102.488 11.9041 102.395 16.6903 102.395 34.9707C102.395 50.1015 102.673 58.1301 102.859 64.6765C113.002 64.8617 128.689 65.1397 138.848 65.1397C166.439 65.1397 174.93 49.5457 174.93 35.0634M96.6055 34.9553C96.6055 12.6297 96.1423 8.93964 95.957 2.11536C100.851 2.20799 107.583 2.39326 112.663 2.39326C118.298 2.39326 126.234 2.11536 138.864 2.11536C170.422 2.11536 181.955 18.543 181.955 35.0479C181.955 51.5528 170.422 68.629 138.864 68.629C124.937 68.629 118.005 68.3511 112.755 68.3511C107.768 68.3511 100.944 68.5363 95.957 68.629C96.1423 61.8047 96.6055 53.035 96.6055 34.9553Z" fill="#8E887E" fill-opacity="0.35"/>
    <path d="M275.457 2.84158L276.384 7.18009L275.642 7.36536C274.438 5.79053 266.78 5.51264 262.534 5.51264H213.822C213.73 14.2823 213.267 23.3144 213.267 32.0841H246.029C249.905 32.0841 261.438 31.9915 264.758 31.1577C264.572 32.1767 264.572 32.9179 264.572 33.8288C264.572 34.6625 264.572 35.4962 264.758 36.4998C261.438 35.4808 249.905 35.4808 246.029 35.4808H213.267C213.267 45.3467 213.73 55.3207 213.822 65.0939H260.048C269.189 65.0939 274.623 65.0013 277.125 62.3302L277.68 62.7008L275.565 67.3172C275.009 68.5215 274.639 68.6141 273.357 68.6141C261.361 68.6141 247.342 68.3362 237.46 68.3362C228.135 68.3362 215.876 68.5215 206.458 68.6141C206.736 62.6236 207.291 53.0202 207.291 34.9404C207.291 12.6148 206.828 7.99838 206.458 2.10046C216.138 2.1931 228.691 2.37841 238.387 2.37841C247.064 2.37841 261.083 2.10046 274.376 2.10046C275.025 2.10046 275.395 2.28576 275.488 2.84158" fill="#8E887E" fill-opacity="0.35"/>
    <path d="M306.691 0.169813C311.401 4.13778 332.059 21.847 349.598 35.6963C360.761 44.3733 373.035 54.5171 380.23 60.2452C380.415 49.2676 380.601 39.2011 380.601 28.9646C380.601 20.2876 380.508 11.5333 380.137 2.11521C381.249 2.30049 383.642 2.30049 384.754 2.11521C384.291 13.278 384.105 24.4408 384.105 36.4374C384.105 47.0444 384.291 58.2998 384.569 70.7595H383.55C378.841 66.8842 361.039 51.6608 346.927 40.4053C333 29.4278 318.317 17.246 310.026 10.8849C309.934 17.4312 309.841 23.9005 309.841 30.2616C309.841 43.0918 310.119 55.7214 310.582 68.6443C309.471 68.459 307.17 68.459 305.966 68.6443C306.151 61.7274 306.244 54.3473 306.244 46.5966C306.244 32.1143 305.966 16.4277 305.595 0H306.707V0.185267L306.691 0.169813Z" fill="#8E887E" fill-opacity="0.35"/>
    <path d="M0 120.768V102.457C1.01901 102.457 3.42758 102.411 4.47747 102.411C9.55709 102.411 10.993 105.205 10.993 107.923C10.993 110.64 9.03215 113.527 4.47747 113.527C3.61286 113.527 2.48577 113.496 1.45132 113.419V120.768H0.0154396H0ZM1.43588 103.816V112.03C2.45489 112.107 3.36582 112.169 4.41572 112.169C7.73522 112.169 9.46445 110.408 9.46445 107.907C9.46445 105.53 8.05945 103.769 4.60099 103.769C3.78269 103.769 2.3005 103.8 1.43588 103.816Z" fill="#8E887E"/>
    <path d="M23.1438 120.768V102.457C24.1628 102.457 27.0191 102.411 27.5441 102.411C32.5465 102.411 33.9515 104.897 33.9515 107.691C33.9515 110.3 32.0679 112.261 29.613 112.786L36.0204 120.768H34.2448L28.1462 113.08H24.5951V120.768H23.1592H23.1438ZM24.5797 103.816V111.721H27.7448C30.0762 111.721 32.423 110.131 32.423 107.691C32.423 105.468 31.1724 103.769 27.4514 103.769C26.8956 103.769 25.4443 103.8 24.5797 103.816Z" fill="#8E887E"/>
    <path d="M48.125 102.457H49.5609V120.768H48.125V102.457Z" fill="#8E887E"/>
    <path d="M70.111 120.922H69.0919L61.2178 102.457H62.7617L69.6478 118.73L76.3485 102.457H77.8153L70.1264 120.922H70.111Z" fill="#8E887E"/>
    <path d="M92.6065 102.302H93.7799L101.762 120.768H100.218L97.5472 114.546H88.7621L86.091 120.768H84.6243L92.6065 102.302ZM89.3333 113.187H96.945L93.1469 104.294L89.3333 113.187Z" fill="#8E887E"/>
    <path d="M108.448 102.457H123.439V103.815H116.661V120.768H115.225V103.815H108.448V102.457Z" fill="#8E887E"/>
    <path d="M134.448 102.457H144.576V103.816H135.899V110.794H143.804V112.153H135.899V119.394H144.838V120.753H134.448V102.441V102.457Z" fill="#8E887E"/>
    <path d="M185.321 120.768V102.457C186.34 102.457 189.196 102.411 189.721 102.411C194.724 102.411 196.129 104.897 196.129 107.691C196.129 110.3 194.245 112.261 191.79 112.786L198.198 120.768H196.422L190.323 113.08H186.772V120.768H185.336H185.321ZM186.757 103.816V111.721H189.922C192.253 111.721 194.6 110.131 194.6 107.691C194.6 105.468 193.35 103.769 189.629 103.769C189.073 103.769 187.622 103.8 186.757 103.816Z" fill="#8E887E"/>
    <path d="M209.669 102.457H219.798V103.816H211.121V110.794H219.026V112.153H211.121V119.394H220.06V120.753H209.669V102.441V102.457Z" fill="#8E887E"/>
    <path d="M231.532 106.81C231.532 104.247 233.493 102.24 236.889 102.24C238.927 102.24 240.78 102.966 241.799 104.093L241.012 105.158C239.962 104.109 238.603 103.584 236.936 103.584C234.527 103.584 233.045 104.865 233.045 106.795C233.045 111.921 242.509 109.821 242.509 116.182C242.509 119.116 239.916 120.999 236.673 120.999C234.496 120.999 231.964 120.011 231.053 118.359L231.918 117.371C232.983 118.838 235.006 119.641 236.658 119.641C238.912 119.641 240.996 118.467 240.996 116.213C240.996 111.041 231.532 112.925 231.532 106.795V106.81Z" fill="#8E887E"/>
    <path d="M255.308 102.457H256.744V120.768H255.308V102.457Z" fill="#8E887E"/>
    <path d="M271.026 102.457H271.319C272.632 102.457 274.114 102.38 275.72 102.38C283.038 102.38 286.002 106.595 286.002 111.35C286.002 116.584 282.497 120.815 275.519 120.815C274.191 120.815 272.74 120.768 271.288 120.768H271.057V102.457H271.026ZM272.462 103.816V119.41C273.959 119.441 275.364 119.456 275.55 119.456C281.432 119.456 284.474 115.92 284.474 111.35C284.474 107.12 281.756 103.739 275.658 103.739C274.299 103.739 273.573 103.785 272.462 103.816Z" fill="#8E887E"/>
    <path d="M298.138 102.457H308.266V103.816H299.589V110.794H307.494V112.153H299.589V119.394H308.529V120.753H298.138V102.441V102.457Z" fill="#8E887E"/>
    <path d="M334.915 120.768L322.378 105.02V120.768H321.02V102.457H322.177L334.699 118.251V102.457H336.058V120.768H334.9H334.915Z" fill="#8E887E"/>
    <path d="M363.077 118.993C361.826 120.243 359.572 121 357.395 121C351.96 121 348.208 117.31 348.208 111.613C348.208 106.348 351.667 102.225 357.179 102.225C359.479 102.225 361.332 102.797 362.722 103.955L362.042 105.02C360.73 104.032 359.186 103.584 357.21 103.584C352.763 103.584 349.722 106.981 349.722 111.613C349.722 116.245 352.918 119.641 357.488 119.641C359.448 119.641 361.209 118.962 362.49 117.912L363.061 118.977L363.077 118.993Z" fill="#8E887E"/>
    <path d="M374.718 102.457H384.847V103.816H376.17V110.794H384.075V112.153H376.17V119.394H385.109V120.753H374.718V102.441V102.457Z" fill="#8E887E"/>
  </g>
  <!-- removed defs/filter to avoid rasterization -->
</svg>
