<svg width="386" height="121" viewBox="0 0 386 121" fill="none" xmlns="http://www.w3.org/2000/svg">
<path d="M69.6915 2.84158L70.6179 7.18009L69.8768 7.36536C68.6725 5.79053 61.0145 5.51264 56.7686 5.51264H8.05681C7.96417 14.2823 7.50099 23.3144 7.50099 32.0841H40.2637C44.1391 32.0841 55.6724 31.9915 58.9919 31.1577C58.8066 32.1767 58.8066 32.9179 58.8066 33.8288C58.8066 34.6625 58.8066 35.4962 58.9919 36.4998C55.6724 35.4808 44.1391 35.4808 40.2637 35.4808H7.50099C7.50099 45.3467 7.96417 55.3207 8.05681 65.0939H54.2829C63.4231 65.0939 68.8578 65.0013 71.359 62.3302L71.9148 62.7008L69.7996 67.3172C69.2438 68.5215 68.8732 68.6141 67.5918 68.6141C55.5952 68.6141 41.5761 68.3362 31.6948 68.3362C22.3693 68.3362 10.1103 68.5215 0.692139 68.6141C0.970051 62.6236 1.52587 53.0202 1.52587 34.9404C1.52587 12.6148 1.06269 7.99838 0.692139 2.10046C10.3727 2.1931 22.9251 2.37841 32.6212 2.37841C41.2982 2.37841 55.3173 2.10046 68.6108 2.10046C69.2592 2.10046 69.6298 2.28576 69.7224 2.84158" fill="#8E887E" fill-opacity="0.35"/>
<path d="M175.376 35.0479C175.376 20.8435 166.884 5.62012 139.294 5.62012C129.15 5.62012 113.371 5.80542 103.211 6.08334C102.934 11.9041 102.841 16.6903 102.841 34.9707C102.841 50.1015 103.119 58.1301 103.304 64.6765C113.448 64.8617 129.134 65.1397 139.294 65.1397C166.884 65.1397 175.376 49.5457 175.376 35.0634M97.051 34.9553C97.051 12.6297 96.5879 8.93964 96.4026 2.11536C101.297 2.20799 108.029 2.39326 113.108 2.39326C118.744 2.39326 126.68 2.11536 139.309 2.11536C170.868 2.11536 182.401 18.543 182.401 35.0479C182.401 51.5528 170.868 68.629 139.309 68.629C125.383 68.629 118.45 68.3511 113.201 68.3511C108.214 68.3511 101.39 68.5363 96.4026 68.629C96.5879 61.8047 97.051 53.035 97.051 34.9553Z" fill="#8E887E" fill-opacity="0.35"/>
<path d="M275.903 2.84158L276.829 7.18009L276.088 7.36536C274.884 5.79053 267.226 5.51264 262.98 5.51264H214.268C214.175 14.2823 213.712 23.3144 213.712 32.0841H246.475C250.35 32.0841 261.884 31.9915 265.203 31.1577C265.018 32.1767 265.018 32.9179 265.018 33.8288C265.018 34.6625 265.018 35.4962 265.203 36.4998C261.884 35.4808 250.35 35.4808 246.475 35.4808H213.712C213.712 45.3467 214.175 55.3207 214.268 65.0939H260.494C269.634 65.0939 275.069 65.0013 277.57 62.3302L278.126 62.7008L276.011 67.3172C275.455 68.5215 275.084 68.6141 273.803 68.6141C261.806 68.6141 247.787 68.3362 237.906 68.3362C228.58 68.3362 216.321 68.5215 206.903 68.6141C207.181 62.6236 207.737 53.0202 207.737 34.9404C207.737 12.6148 207.274 7.99838 206.903 2.10046C216.584 2.1931 229.136 2.37841 238.832 2.37841C247.509 2.37841 261.529 2.10046 274.822 2.10046C275.47 2.10046 275.841 2.28576 275.934 2.84158" fill="#8E887E" fill-opacity="0.35"/>
<path d="M307.137 0.169813C311.846 4.13778 332.504 21.847 350.044 35.6963C361.206 44.3733 373.481 54.5171 380.676 60.2452C380.861 49.2676 381.046 39.2011 381.046 28.9646C381.046 20.2876 380.954 11.5333 380.583 2.11521C381.695 2.30049 384.088 2.30049 385.199 2.11521C384.736 13.278 384.551 24.4408 384.551 36.4374C384.551 47.0444 384.736 58.2998 385.014 70.7595H383.995C379.286 66.8842 361.484 51.6608 347.372 40.4053C333.446 29.4278 318.763 17.246 310.472 10.8849C310.379 17.4312 310.287 23.9005 310.287 30.2616C310.287 43.0918 310.565 55.7214 311.028 68.6443C309.916 68.459 307.616 68.459 306.411 68.6443C306.597 61.7274 306.689 54.3473 306.689 46.5966C306.689 32.1143 306.411 16.4277 306.041 0H307.152V0.185267L307.137 0.169813Z" fill="#8E887E" fill-opacity="0.35"/>
<path d="M0.445557 120.768V102.457C1.46457 102.457 3.87314 102.411 4.92303 102.411C10.0026 102.411 11.4385 105.205 11.4385 107.923C11.4385 110.64 9.4777 113.527 4.92303 113.527C4.05841 113.527 2.93133 113.496 1.89688 113.419V120.768H0.460996H0.445557ZM1.88144 103.816V112.03C2.90045 112.107 3.81138 112.169 4.86127 112.169C8.18078 112.169 9.91001 110.408 9.91001 107.907C9.91001 105.53 8.50501 103.769 5.04655 103.769C4.22825 103.769 2.74605 103.8 1.88144 103.816Z" fill="#8E887E"/>
<path d="M23.5894 120.768V102.457C24.6084 102.457 27.4647 102.411 27.9896 102.411C32.9921 102.411 34.397 104.897 34.397 107.691C34.397 110.3 32.5134 112.261 30.0585 112.786L36.466 120.768H34.6904L28.5918 113.08H25.0407V120.768H23.6048H23.5894ZM25.0252 103.816V111.721H28.1903C30.5217 111.721 32.8685 110.131 32.8685 107.691C32.8685 105.468 31.6179 103.769 27.897 103.769C27.3412 103.769 25.8899 103.8 25.0252 103.816Z" fill="#8E887E"/>
<path d="M48.5706 102.457H50.0064V120.768H48.5706V102.457Z" fill="#8E887E"/>
<path d="M70.5565 120.922H69.5375L61.6633 102.457H63.2073L70.0933 118.73L76.7941 102.457H78.2609L70.572 120.922H70.5565Z" fill="#8E887E"/>
<path d="M93.0521 102.302H94.2255L102.208 120.768H100.664L97.9927 114.546H89.2076L86.5366 120.768H85.0698L93.0521 102.302ZM89.7789 113.187H97.3906L93.5925 104.294L89.7789 113.187Z" fill="#8E887E"/>
<path d="M108.893 102.457H123.885V103.815H117.107V120.768H115.671V103.815H108.893V102.457Z" fill="#8E887E"/>
<path d="M134.893 102.457H145.021V103.816H136.344V110.794H144.249V112.153H136.344V119.394H145.284V120.753H134.893V102.441V102.457Z" fill="#8E887E"/>
<path d="M185.767 120.768V102.457C186.786 102.457 189.642 102.411 190.167 102.411C195.169 102.411 196.574 104.897 196.574 107.691C196.574 110.3 194.691 112.261 192.236 112.786L198.643 120.768H196.868L190.769 113.08H187.218V120.768H185.782H185.767ZM187.202 103.816V111.721H190.368C192.699 111.721 195.046 110.131 195.046 107.691C195.046 105.468 193.795 103.769 190.074 103.769C189.518 103.769 188.067 103.8 187.202 103.816Z" fill="#8E887E"/>
<path d="M210.115 102.457H220.243V103.816H211.566V110.794H219.471V112.153H211.566V119.394H220.506V120.753H210.115V102.441V102.457Z" fill="#8E887E"/>
<path d="M231.977 106.81C231.977 104.247 233.938 102.24 237.335 102.24C239.373 102.24 241.226 102.966 242.245 104.093L241.457 105.158C240.407 104.109 239.049 103.584 237.381 103.584C234.973 103.584 233.49 104.865 233.49 106.795C233.49 111.921 242.955 109.821 242.955 116.182C242.955 119.116 240.361 120.999 237.119 120.999C234.942 120.999 232.41 120.011 231.499 118.359L232.363 117.371C233.429 118.838 235.451 119.641 237.103 119.641C239.358 119.641 241.442 118.467 241.442 116.213C241.442 111.041 231.977 112.925 231.977 106.795V106.81Z" fill="#8E887E"/>
<path d="M255.754 102.457H257.19V120.768H255.754V102.457Z" fill="#8E887E"/>
<path d="M271.471 102.457H271.765C273.077 102.457 274.559 102.38 276.165 102.38C283.483 102.38 286.448 106.595 286.448 111.35C286.448 116.584 282.943 120.815 275.964 120.815C274.637 120.815 273.185 120.768 271.734 120.768H271.502V102.457H271.471ZM272.907 103.816V119.41C274.405 119.441 275.81 119.456 275.995 119.456C281.878 119.456 284.919 115.92 284.919 111.35C284.919 107.12 282.202 103.739 276.103 103.739C274.745 103.739 274.019 103.785 272.907 103.816Z" fill="#8E887E"/>
<path d="M298.583 102.457H308.712V103.816H300.035V110.794H307.94V112.153H300.035V119.394H308.974V120.753H298.583V102.441V102.457Z" fill="#8E887E"/>
<path d="M335.36 120.768L322.824 105.02V120.768H321.465V102.457H322.623L335.144 118.251V102.457H336.503V120.768H335.345H335.36Z" fill="#8E887E"/>
<path d="M363.522 118.993C362.272 120.243 360.018 121 357.841 121C352.406 121 348.654 117.31 348.654 111.613C348.654 106.348 352.113 102.225 357.624 102.225C359.925 102.225 361.778 102.797 363.167 103.955L362.488 105.02C361.176 104.032 359.632 103.584 357.655 103.584C353.209 103.584 350.167 106.981 350.167 111.613C350.167 116.245 353.363 119.641 357.933 119.641C359.894 119.641 361.654 118.962 362.936 117.912L363.507 118.977L363.522 118.993Z" fill="#8E887E"/>
<path d="M375.164 102.457H385.292V103.816H376.615V110.794H384.52V112.153H376.615V119.394H385.555V120.753H375.164V102.441V102.457Z" fill="#8E887E"/>
</svg>
