<svg width="386" height="71" viewBox="0 0 386 71" fill="none" xmlns="http://www.w3.org/2000/svg">
<path d="M69.6915 2.84158L70.6179 7.18009L69.8768 7.36536C68.6725 5.79053 61.0145 5.51264 56.7686 5.51264H8.05681C7.96417 14.2823 7.50099 23.3144 7.50099 32.0841H40.2637C44.1391 32.0841 55.6724 31.9915 58.9919 31.1577C58.8066 32.1767 58.8066 32.9179 58.8066 33.8288C58.8066 34.6625 58.8066 35.4962 58.9919 36.4998C55.6724 35.4808 44.1391 35.4808 40.2637 35.4808H7.50099C7.50099 45.3467 7.96417 55.3207 8.05681 65.0939H54.2829C63.4231 65.0939 68.8578 65.0013 71.359 62.3302L71.9148 62.7008L69.7996 67.3172C69.2438 68.5215 68.8732 68.6141 67.5918 68.6141C55.5952 68.6141 41.5761 68.3362 31.6948 68.3362C22.3693 68.3362 10.1103 68.5215 0.692139 68.6141C0.970051 62.6236 1.52587 53.0202 1.52587 34.9404C1.52587 12.6148 1.06269 7.99838 0.692139 2.10046C10.3727 2.1931 22.9251 2.37841 32.6212 2.37841C41.2982 2.37841 55.3173 2.10046 68.6108 2.10046C69.2592 2.10046 69.6298 2.28576 69.7224 2.84158" fill="#8E887E" fill-opacity="0.35"/>
<path d="M175.376 35.0479C175.376 20.8435 166.884 5.62012 139.294 5.62012C129.15 5.62012 113.371 5.80542 103.211 6.08334C102.934 11.9041 102.841 16.6903 102.841 34.9707C102.841 50.1015 103.119 58.1301 103.304 64.6765C113.448 64.8617 129.134 65.1397 139.294 65.1397C166.884 65.1397 175.376 49.5457 175.376 35.0634M97.051 34.9553C97.051 12.6297 96.5879 8.93964 96.4026 2.11536C101.297 2.20799 108.029 2.39326 113.108 2.39326C118.744 2.39326 126.68 2.11536 139.309 2.11536C170.868 2.11536 182.401 18.543 182.401 35.0479C182.401 51.5528 170.868 68.629 139.309 68.629C125.383 68.629 118.45 68.3511 113.201 68.3511C108.214 68.3511 101.39 68.5363 96.4026 68.629C96.5879 61.8047 97.051 53.035 97.051 34.9553Z" fill="#8E887E" fill-opacity="0.35"/>
<path d="M275.903 2.84158L276.829 7.18009L276.088 7.36536C274.884 5.79053 267.226 5.51264 262.98 5.51264H214.268C214.175 14.2823 213.712 23.3144 213.712 32.0841H246.475C250.35 32.0841 261.884 31.9915 265.203 31.1577C265.018 32.1767 265.018 32.9179 265.018 33.8288C265.018 34.6625 265.018 35.4962 265.203 36.4998C261.884 35.4808 250.35 35.4808 246.475 35.4808H213.712C213.712 45.3467 214.175 55.3207 214.268 65.0939H260.494C269.634 65.0939 275.069 65.0013 277.57 62.3302L278.126 62.7008L276.011 67.3172C275.455 68.5215 275.084 68.6141 273.803 68.6141C261.806 68.6141 247.787 68.3362 237.906 68.3362C228.58 68.3362 216.321 68.5215 206.903 68.6141C207.181 62.6236 207.737 53.0202 207.737 34.9404C207.737 12.6148 207.274 7.99838 206.903 2.10046C216.584 2.1931 229.136 2.37841 238.832 2.37841C247.509 2.37841 261.529 2.10046 274.822 2.10046C275.47 2.10046 275.841 2.28576 275.934 2.84158" fill="#8E887E" fill-opacity="0.35"/>
<path d="M307.137 0.169813C311.846 4.13778 332.504 21.847 350.044 35.6963C361.206 44.3733 373.481 54.5171 380.676 60.2452C380.861 49.2676 381.046 39.2011 381.046 28.9646C381.046 20.2876 380.954 11.5333 380.583 2.11521C381.695 2.30049 384.088 2.30049 385.199 2.11521C384.736 13.278 384.551 24.4408 384.551 36.4374C384.551 47.0444 384.736 58.2998 385.014 70.7595H383.995C379.286 66.8842 361.484 51.6608 347.372 40.4053C333.446 29.4278 318.763 17.246 310.472 10.8849C310.379 17.4312 310.287 23.9005 310.287 30.2616C310.287 43.0918 310.565 55.7214 311.028 68.6443C309.916 68.459 307.616 68.459 306.411 68.6443C306.597 61.7274 306.689 54.3473 306.689 46.5966C306.689 32.1143 306.411 16.4277 306.041 0H307.152V0.185267L307.137 0.169813Z" fill="#8E887E" fill-opacity="0.35"/>
</svg>
