<?xml version="1.0" encoding="UTF-8"?>
<svg id="Layer_1" data-name="Layer 1" xmlns="http://www.w3.org/2000/svg" viewBox="0 0 951.13 175.05">
  <defs>
    <style>
      .cls-1 {
        fill: #8e887e;
      }
    </style>
  </defs>
  <path class="cls-1" d="M758.05.46c11.64,9.81,62.76,53.63,106.12,87.87,27.62,21.45,57.97,46.56,75.77,60.71.46-27.16.91-52.04.91-77.37,0-21.45-.23-43.13-1.14-66.41,2.74.46,8.67.46,11.41,0-1.14,27.62-1.6,55.23-1.6,84.9,0,26.25.46,54.09,1.14,84.9h-2.51c-11.64-9.58-55.69-47.24-90.6-75.08-34.46-27.16-70.75-57.29-91.29-73.03-.23,16.2-.46,32.18-.46,47.93,0,31.72.69,62.99,1.82,94.94-2.74-.46-8.44-.46-11.41,0,.46-17.12.68-35.37.68-54.54,0-35.83-.68-74.63-1.6-115.25h2.74v.46Z"/>
  <path class="cls-1" d="M680.8,7.07l2.28,10.73-1.83.46c-2.97-3.88-21.91-4.57-32.41-4.57h-120.5c-.23,21.68-1.37,44.05-1.37,65.73h81.02c9.59,0,38.11-.23,46.33-2.28-.46,2.51-.46,4.34-.46,6.62,0,2.05,0,4.11.46,6.62-8.22-2.51-36.74-2.51-46.33-2.51h-81.02c0,24.42,1.14,49.07,1.37,73.26h114.34c22.59,0,36.06-.23,42.22-6.85l1.37.91-5.25,11.41c-1.37,2.97-2.28,3.2-5.48,3.2-29.67,0-64.36-.69-88.78-.69-23.05,0-53.4.46-76.68.69.68-14.84,2.05-38.57,2.05-83.3,0-55.23-1.14-66.64-2.05-81.25,23.96.23,55,.68,78.96.68,21.45,0,56.14-.68,89.01-.68,1.6,0,2.51.46,2.74,1.82"/>
  <path class="cls-1" d="M432.14,86.72c0-35.15-21-72.8-89.24-72.8-25.1,0-64.13.46-89.24,1.14-.69,14.38-.91,26.25-.91,71.43,0,37.43.68,57.28,1.14,73.49,25.1.46,63.9,1.14,89.01,1.14,68.24,0,89.24-38.57,89.24-74.4M238.38,86.5c0-55.23-1.14-64.36-1.6-81.25,12.09.23,28.76.68,41.31.68,13.92,0,33.55-.68,64.82-.68,78.05,0,106.58,40.62,106.58,81.47s-28.53,83.07-106.58,83.07c-34.46,0-51.58-.69-64.59-.69-12.32,0-29.21.46-41.54.69.46-16.89,1.6-38.57,1.6-83.3"/>
  <path class="cls-1" d="M170.71,7.07l2.28,10.73-1.83.46c-2.97-3.88-21.91-4.57-32.41-4.57H18.26c-.23,21.68-1.37,44.05-1.37,65.73h81.02c9.59,0,38.11-.23,46.33-2.28-.46,2.51-.46,4.34-.46,6.62,0,2.05,0,4.11.46,6.62-8.22-2.51-36.74-2.51-46.33-2.51H16.89c0,24.42,1.14,49.07,1.37,73.26h114.34c22.59,0,36.06-.23,42.22-6.85l1.37.91-5.25,11.41c-1.37,2.97-2.28,3.2-5.48,3.2-29.67,0-64.36-.69-88.78-.69-23.05,0-53.41.46-76.68.69.68-14.84,2.05-38.57,2.05-83.3C2.05,31.26.91,19.85,0,5.25c23.96.23,55,.68,78.96.68,21.45,0,56.14-.68,89.01-.68,1.6,0,2.51.46,2.74,1.82"/>
</svg>