<svg width="348" height="40" viewBox="0 0 348 40" fill="none" xmlns="http://www.w3.org/2000/svg">
<g filter="url(#filter0_d_447_23)">
<path d="M13.196 20.104H7.4V17.612H13.196V11.76H15.744V17.612H21.512V20.104H15.744V25.984H13.196V20.104ZM36.2264 9.716H26.9304V7.308H38.9424V9.716L30.7944 28H27.9384L36.2264 9.716ZM62.126 31.612C61.006 31.22 59.97 30.6133 59.018 29.792C58.0847 28.9893 57.2727 28.0467 56.582 26.964C55.8913 25.8813 55.35 24.696 54.958 23.408C54.566 22.1013 54.37 20.776 54.37 19.432C54.37 18.0693 54.5567 16.7533 54.93 15.484C55.3033 14.2147 55.8353 13.048 56.526 11.984C57.2167 10.92 58.038 9.98667 58.99 9.184C59.942 8.36267 60.9873 7.73733 62.126 7.308V9.828C61.342 10.3507 60.6327 10.9667 59.998 11.676C59.3633 12.3667 58.822 13.1227 58.374 13.944C57.926 14.7653 57.5807 15.6427 57.338 16.576C57.114 17.5093 57.002 18.4613 57.002 19.432C57.002 20.4027 57.1233 21.364 57.366 22.316C57.6087 23.2493 57.954 24.136 58.402 24.976C58.85 25.816 59.382 26.5813 59.998 27.272C60.6327 27.9627 61.342 28.5507 62.126 29.036V31.612ZM65.7446 22.176L75.6566 7.308H78.3166V22.092H80.3046V24.444H78.3166V28H75.7126V24.444H65.7446V22.176ZM75.7126 22.092V11.312L68.6006 22.092H75.7126ZM92.3912 20.748C91.9618 20.9533 91.5978 21.0933 91.2992 21.168C91.0005 21.224 90.6458 21.252 90.2352 21.252C89.3392 21.252 88.5085 21.0747 87.7432 20.72C86.9778 20.3653 86.3152 19.88 85.7552 19.264C85.1952 18.6293 84.7472 17.892 84.4112 17.052C84.0938 16.1933 83.9352 15.2787 83.9352 14.308C83.9352 13.244 84.1032 12.264 84.4392 11.368C84.7938 10.4533 85.2792 9.66933 85.8952 9.016C86.5298 8.36267 87.2765 7.85867 88.1352 7.504C88.9938 7.13067 89.9272 6.944 90.9352 6.944C91.9618 6.944 92.9138 7.13067 93.7912 7.504C94.6685 7.85867 95.4245 8.36267 96.0592 9.016C96.6938 9.65067 97.1885 10.4067 97.5432 11.284C97.9165 12.1613 98.1032 13.1133 98.1032 14.14C98.1032 14.644 98.0658 15.12 97.9912 15.568C97.9165 16.016 97.7858 16.4733 97.5992 16.94C97.4312 17.388 97.1978 17.8827 96.8992 18.424C96.6005 18.9467 96.2272 19.544 95.7792 20.216L90.5712 28H87.4912L92.3912 20.748ZM91.0192 18.9C91.6538 18.9 92.2418 18.7787 92.7832 18.536C93.3245 18.2933 93.7912 17.9667 94.1832 17.556C94.5938 17.1267 94.9112 16.6227 95.1352 16.044C95.3592 15.4653 95.4712 14.8307 95.4712 14.14C95.4712 13.4307 95.3592 12.7867 95.1352 12.208C94.9112 11.6107 94.5938 11.1067 94.1832 10.696C93.7725 10.2667 93.2872 9.93067 92.7272 9.688C92.1672 9.44533 91.5512 9.324 90.8792 9.324C90.2445 9.324 89.6658 9.44533 89.1432 9.688C88.6205 9.93067 88.1632 10.2667 87.7712 10.696C87.3978 11.1067 87.0992 11.6107 86.8752 12.208C86.6698 12.7867 86.5672 13.4307 86.5672 14.14C86.5672 14.8307 86.6792 15.4747 86.9032 16.072C87.1272 16.6507 87.4352 17.1547 87.8272 17.584C88.2192 17.9947 88.6858 18.3213 89.2272 18.564C89.7685 18.788 90.3658 18.9 91.0192 18.9ZM104.31 21.616C104.496 22.96 104.991 24.024 105.794 24.808C106.596 25.592 107.586 25.984 108.762 25.984C109.396 25.984 109.984 25.8627 110.526 25.62C111.067 25.3587 111.534 25.0133 111.926 24.584C112.336 24.1547 112.654 23.6413 112.878 23.044C113.102 22.4467 113.214 21.8027 113.214 21.112C113.214 20.44 113.102 19.8147 112.878 19.236C112.654 18.6387 112.346 18.1347 111.954 17.724C111.562 17.2947 111.095 16.9587 110.554 16.716C110.012 16.4733 109.424 16.352 108.79 16.352C108.043 16.352 107.362 16.52 106.746 16.856C106.13 17.192 105.532 17.7147 104.954 18.424L102.798 17.696L104.674 7.308H113.998V9.716H106.718L105.822 14.812C106.419 14.4947 106.96 14.2707 107.446 14.14C107.95 14.0093 108.491 13.944 109.07 13.944C110.022 13.944 110.908 14.1307 111.73 14.504C112.57 14.8587 113.288 15.3627 113.886 16.016C114.483 16.6507 114.95 17.4067 115.286 18.284C115.64 19.1613 115.818 20.104 115.818 21.112C115.818 22.1387 115.64 23.0907 115.286 23.968C114.931 24.8453 114.436 25.6107 113.802 26.264C113.186 26.9173 112.448 27.4307 111.59 27.804C110.75 28.1773 109.835 28.364 108.846 28.364C107.894 28.364 107.007 28.2053 106.186 27.888C105.364 27.5707 104.636 27.1227 104.002 26.544C103.386 25.9467 102.872 25.2373 102.462 24.416C102.07 23.576 101.818 22.6427 101.706 21.616H104.31ZM119.896 29.064C120.68 28.56 121.39 27.9627 122.024 27.272C122.659 26.5627 123.191 25.7973 123.62 24.976C124.068 24.1547 124.414 23.2773 124.656 22.344C124.899 21.392 125.02 20.4307 125.02 19.46C125.02 18.4893 124.899 17.5373 124.656 16.604C124.414 15.652 124.068 14.7653 123.62 13.944C123.172 13.104 122.631 12.3387 121.996 11.648C121.38 10.9573 120.68 10.3693 119.896 9.884V7.308C121.016 7.7 122.043 8.30667 122.976 9.128C123.928 9.93067 124.75 10.8733 125.44 11.956C126.131 13.0387 126.672 14.224 127.064 15.512C127.456 16.8 127.652 18.1253 127.652 19.488C127.652 20.8507 127.466 22.1667 127.092 23.436C126.719 24.7053 126.187 25.872 125.496 26.936C124.806 28 123.984 28.9333 123.032 29.736C122.099 30.5573 121.054 31.1827 119.896 31.612V29.064ZM148.808 9.716H145.588V7.308H151.412V28H148.808V9.716ZM160.026 14.42C160.026 12.0307 160.624 10.192 161.818 8.904C163.032 7.59733 164.74 6.944 166.942 6.944C169.145 6.944 170.853 7.59733 172.066 8.904C173.28 10.192 173.886 12.0027 173.886 14.336V20.664C173.886 23.184 173.308 25.0973 172.15 26.404C171.012 27.7107 169.332 28.364 167.11 28.364C164.833 28.364 163.078 27.7107 161.846 26.404C160.633 25.0787 160.026 23.1653 160.026 20.664V14.42ZM162.63 20.412C162.63 24.1267 164.096 25.984 167.026 25.984C168.482 25.984 169.556 25.536 170.246 24.64C170.937 23.744 171.282 22.344 171.282 20.44V14.728C171.282 11.1253 169.845 9.324 166.97 9.324C164.077 9.324 162.63 11.1253 162.63 14.728V20.412ZM186.085 20.748C185.656 20.9533 185.292 21.0933 184.993 21.168C184.694 21.224 184.34 21.252 183.929 21.252C183.033 21.252 182.202 21.0747 181.437 20.72C180.672 20.3653 180.009 19.88 179.449 19.264C178.889 18.6293 178.441 17.892 178.105 17.052C177.788 16.1933 177.629 15.2787 177.629 14.308C177.629 13.244 177.797 12.264 178.133 11.368C178.488 10.4533 178.973 9.66933 179.589 9.016C180.224 8.36267 180.97 7.85867 181.829 7.504C182.688 7.13067 183.621 6.944 184.629 6.944C185.656 6.944 186.608 7.13067 187.485 7.504C188.362 7.85867 189.118 8.36267 189.753 9.016C190.388 9.65067 190.882 10.4067 191.237 11.284C191.61 12.1613 191.797 13.1133 191.797 14.14C191.797 14.644 191.76 15.12 191.685 15.568C191.61 16.016 191.48 16.4733 191.293 16.94C191.125 17.388 190.892 17.8827 190.593 18.424C190.294 18.9467 189.921 19.544 189.473 20.216L184.265 28H181.185L186.085 20.748ZM184.713 18.9C185.348 18.9 185.936 18.7787 186.477 18.536C187.018 18.2933 187.485 17.9667 187.877 17.556C188.288 17.1267 188.605 16.6227 188.829 16.044C189.053 15.4653 189.165 14.8307 189.165 14.14C189.165 13.4307 189.053 12.7867 188.829 12.208C188.605 11.6107 188.288 11.1067 187.877 10.696C187.466 10.2667 186.981 9.93067 186.421 9.688C185.861 9.44533 185.245 9.324 184.573 9.324C183.938 9.324 183.36 9.44533 182.837 9.688C182.314 9.93067 181.857 10.2667 181.465 10.696C181.092 11.1067 180.793 11.6107 180.569 12.208C180.364 12.7867 180.261 13.4307 180.261 14.14C180.261 14.8307 180.373 15.4747 180.597 16.072C180.821 16.6507 181.129 17.1547 181.521 17.584C181.913 17.9947 182.38 18.3213 182.921 18.564C183.462 18.788 184.06 18.9 184.713 18.9ZM205.629 19.236H213.273V21.504H205.629V19.236ZM225.508 20.748C225.079 20.9533 224.715 21.0933 224.416 21.168C224.118 21.224 223.763 21.252 223.352 21.252C222.456 21.252 221.626 21.0747 220.86 20.72C220.095 20.3653 219.432 19.88 218.872 19.264C218.312 18.6293 217.864 17.892 217.528 17.052C217.211 16.1933 217.052 15.2787 217.052 14.308C217.052 13.244 217.22 12.264 217.556 11.368C217.911 10.4533 218.396 9.66933 219.012 9.016C219.647 8.36267 220.394 7.85867 221.252 7.504C222.111 7.13067 223.044 6.944 224.052 6.944C225.079 6.944 226.031 7.13067 226.908 7.504C227.786 7.85867 228.542 8.36267 229.176 9.016C229.811 9.65067 230.306 10.4067 230.66 11.284C231.034 12.1613 231.22 13.1133 231.22 14.14C231.22 14.644 231.183 15.12 231.108 15.568C231.034 16.016 230.903 16.4733 230.716 16.94C230.548 17.388 230.315 17.8827 230.016 18.424C229.718 18.9467 229.344 19.544 228.896 20.216L223.688 28H220.608L225.508 20.748ZM224.136 18.9C224.771 18.9 225.359 18.7787 225.9 18.536C226.442 18.2933 226.908 17.9667 227.3 17.556C227.711 17.1267 228.028 16.6227 228.252 16.044C228.476 15.4653 228.588 14.8307 228.588 14.14C228.588 13.4307 228.476 12.7867 228.252 12.208C228.028 11.6107 227.711 11.1067 227.3 10.696C226.89 10.2667 226.404 9.93067 225.844 9.688C225.284 9.44533 224.668 9.324 223.996 9.324C223.362 9.324 222.783 9.44533 222.26 9.688C221.738 9.93067 221.28 10.2667 220.888 10.696C220.515 11.1067 220.216 11.6107 219.992 12.208C219.787 12.7867 219.684 13.4307 219.684 14.14C219.684 14.8307 219.796 15.4747 220.02 16.072C220.244 16.6507 220.552 17.1547 220.944 17.584C221.336 17.9947 221.803 18.3213 222.344 18.564C222.886 18.788 223.483 18.9 224.136 18.9ZM243.307 20.748C242.877 20.9533 242.513 21.0933 242.215 21.168C241.916 21.224 241.561 21.252 241.151 21.252C240.255 21.252 239.424 21.0747 238.659 20.72C237.893 20.3653 237.231 19.88 236.671 19.264C236.111 18.6293 235.663 17.892 235.327 17.052C235.009 16.1933 234.851 15.2787 234.851 14.308C234.851 13.244 235.019 12.264 235.355 11.368C235.709 10.4533 236.195 9.66933 236.811 9.016C237.445 8.36267 238.192 7.85867 239.051 7.504C239.909 7.13067 240.843 6.944 241.851 6.944C242.877 6.944 243.829 7.13067 244.707 7.504C245.584 7.85867 246.34 8.36267 246.975 9.016C247.609 9.65067 248.104 10.4067 248.459 11.284C248.832 12.1613 249.019 13.1133 249.019 14.14C249.019 14.644 248.981 15.12 248.907 15.568C248.832 16.016 248.701 16.4733 248.515 16.94C248.347 17.388 248.113 17.8827 247.815 18.424C247.516 18.9467 247.143 19.544 246.695 20.216L241.487 28H238.407L243.307 20.748ZM241.935 18.9C242.569 18.9 243.157 18.7787 243.699 18.536C244.24 18.2933 244.707 17.9667 245.099 17.556C245.509 17.1267 245.827 16.6227 246.051 16.044C246.275 15.4653 246.387 14.8307 246.387 14.14C246.387 13.4307 246.275 12.7867 246.051 12.208C245.827 11.6107 245.509 11.1067 245.099 10.696C244.688 10.2667 244.203 9.93067 243.643 9.688C243.083 9.44533 242.467 9.324 241.795 9.324C241.16 9.324 240.581 9.44533 240.059 9.688C239.536 9.93067 239.079 10.2667 238.687 10.696C238.313 11.1067 238.015 11.6107 237.791 12.208C237.585 12.7867 237.483 13.4307 237.483 14.14C237.483 14.8307 237.595 15.4747 237.819 16.072C238.043 16.6507 238.351 17.1547 238.743 17.584C239.135 17.9947 239.601 18.3213 240.143 18.564C240.684 18.788 241.281 18.9 241.935 18.9ZM252.817 19.236H260.461V21.504H252.817V19.236ZM272.697 20.748C272.268 20.9533 271.904 21.0933 271.605 21.168C271.306 21.224 270.952 21.252 270.541 21.252C269.645 21.252 268.814 21.0747 268.049 20.72C267.284 20.3653 266.621 19.88 266.061 19.264C265.501 18.6293 265.053 17.892 264.717 17.052C264.4 16.1933 264.241 15.2787 264.241 14.308C264.241 13.244 264.409 12.264 264.745 11.368C265.1 10.4533 265.585 9.66933 266.201 9.016C266.836 8.36267 267.582 7.85867 268.441 7.504C269.3 7.13067 270.233 6.944 271.241 6.944C272.268 6.944 273.22 7.13067 274.097 7.504C274.974 7.85867 275.73 8.36267 276.365 9.016C277 9.65067 277.494 10.4067 277.849 11.284C278.222 12.1613 278.409 13.1133 278.409 14.14C278.409 14.644 278.372 15.12 278.297 15.568C278.222 16.016 278.092 16.4733 277.905 16.94C277.737 17.388 277.504 17.8827 277.205 18.424C276.906 18.9467 276.533 19.544 276.085 20.216L270.877 28H267.797L272.697 20.748ZM271.325 18.9C271.96 18.9 272.548 18.7787 273.089 18.536C273.63 18.2933 274.097 17.9667 274.489 17.556C274.9 17.1267 275.217 16.6227 275.441 16.044C275.665 15.4653 275.777 14.8307 275.777 14.14C275.777 13.4307 275.665 12.7867 275.441 12.208C275.217 11.6107 274.9 11.1067 274.489 10.696C274.078 10.2667 273.593 9.93067 273.033 9.688C272.473 9.44533 271.857 9.324 271.185 9.324C270.55 9.324 269.972 9.44533 269.449 9.688C268.926 9.93067 268.469 10.2667 268.077 10.696C267.704 11.1067 267.405 11.6107 267.181 12.208C266.976 12.7867 266.873 13.4307 266.873 14.14C266.873 14.8307 266.985 15.4747 267.209 16.072C267.433 16.6507 267.741 17.1547 268.133 17.584C268.525 17.9947 268.992 18.3213 269.533 18.564C270.074 18.788 270.672 18.9 271.325 18.9ZM290.496 20.748C290.066 20.9533 289.702 21.0933 289.404 21.168C289.105 21.224 288.75 21.252 288.34 21.252C287.444 21.252 286.613 21.0747 285.848 20.72C285.082 20.3653 284.42 19.88 283.86 19.264C283.3 18.6293 282.852 17.892 282.516 17.052C282.198 16.1933 282.04 15.2787 282.04 14.308C282.04 13.244 282.208 12.264 282.544 11.368C282.898 10.4533 283.384 9.66933 284 9.016C284.634 8.36267 285.381 7.85867 286.24 7.504C287.098 7.13067 288.032 6.944 289.04 6.944C290.066 6.944 291.018 7.13067 291.896 7.504C292.773 7.85867 293.529 8.36267 294.164 9.016C294.798 9.65067 295.293 10.4067 295.648 11.284C296.021 12.1613 296.208 13.1133 296.208 14.14C296.208 14.644 296.17 15.12 296.096 15.568C296.021 16.016 295.89 16.4733 295.704 16.94C295.536 17.388 295.302 17.8827 295.004 18.424C294.705 18.9467 294.332 19.544 293.884 20.216L288.676 28H285.596L290.496 20.748ZM289.124 18.9C289.758 18.9 290.346 18.7787 290.888 18.536C291.429 18.2933 291.896 17.9667 292.288 17.556C292.698 17.1267 293.016 16.6227 293.24 16.044C293.464 15.4653 293.576 14.8307 293.576 14.14C293.576 13.4307 293.464 12.7867 293.24 12.208C293.016 11.6107 292.698 11.1067 292.288 10.696C291.877 10.2667 291.392 9.93067 290.832 9.688C290.272 9.44533 289.656 9.324 288.984 9.324C288.349 9.324 287.77 9.44533 287.248 9.688C286.725 9.93067 286.268 10.2667 285.876 10.696C285.502 11.1067 285.204 11.6107 284.98 12.208C284.774 12.7867 284.672 13.4307 284.672 14.14C284.672 14.8307 284.784 15.4747 285.008 16.072C285.232 16.6507 285.54 17.1547 285.932 17.584C286.324 17.9947 286.79 18.3213 287.332 18.564C287.873 18.788 288.47 18.9 289.124 18.9Z" fill="#8E887E"/>
</g>
<defs>
<filter id="filter0_d_447_23" x="0.400391" y="0.943848" width="302.808" height="38.668" filterUnits="userSpaceOnUse" color-interpolation-filters="sRGB">
<feFlood flood-opacity="0" result="BackgroundImageFix"/>
<feColorMatrix in="SourceAlpha" type="matrix" values="0 0 0 0 0 0 0 0 0 0 0 0 0 0 0 0 0 0 127 0" result="hardAlpha"/>
<feOffset dy="1"/>
<feGaussianBlur stdDeviation="3.5"/>
<feComposite in2="hardAlpha" operator="out"/>
<feColorMatrix type="matrix" values="0 0 0 0 0.913725 0 0 0 0 0.901961 0 0 0 0 0.894118 0 0 0 1 0"/>
<feBlend mode="normal" in2="BackgroundImageFix" result="effect1_dropShadow_447_23"/>
<feBlend mode="normal" in="SourceGraphic" in2="effect1_dropShadow_447_23" result="shape"/>
</filter>
</defs>
</svg>
