<svg width="98" height="19" viewBox="0 0 98 19" fill="none" xmlns="http://www.w3.org/2000/svg">
<path d="M0.443073 0.493283H1.87622L5.30822 12.6184L8.64593 0.493283H9.96593L13.3036 12.6184L16.7356 0.493283H18.1688L14.1711 14.4287H12.3796L9.28707 3.00128L6.23222 14.4287H4.42193L0.443073 0.493283ZM19.9218 0.493283H21.3172V5.45271C21.6692 4.93728 22.1218 4.54757 22.6749 4.28357C23.2406 4.007 23.8755 3.86871 24.5795 3.86871C26.0378 3.86871 27.144 4.29614 27.8983 5.151C28.6652 6.00585 29.0486 7.25043 29.0486 8.88471V14.4287H27.6532V8.88471C27.6532 7.69043 27.3766 6.77271 26.8235 6.13157C26.2703 5.47785 25.4846 5.151 24.4663 5.151C23.4732 5.151 22.7 5.47157 22.1469 6.11271C21.5938 6.74128 21.3172 7.62757 21.3172 8.77157V14.4287H19.9218V0.493283ZM31.4124 9.29957C31.4124 8.52014 31.5507 7.80357 31.8272 7.14985C32.1038 6.48357 32.481 5.91157 32.9587 5.43385C33.449 4.94357 34.0272 4.56014 34.6935 4.28357C35.3598 4.007 36.0764 3.86871 36.8432 3.86871C37.7484 3.86871 38.5215 4.03214 39.1627 4.359C39.8038 4.68585 40.3884 5.21385 40.9164 5.943V4.11385H42.3118V14.4287H40.9164V12.6184C40.6398 12.983 40.357 13.2973 40.0678 13.5613C39.7912 13.8253 39.4958 14.039 39.1815 14.2024C38.8672 14.3659 38.5278 14.4853 38.1632 14.5607C37.7987 14.6361 37.3964 14.6739 36.9564 14.6739C36.1644 14.6739 35.429 14.5419 34.7501 14.2779C34.0712 14.0013 33.4804 13.6241 32.9775 13.1464C32.4872 12.6687 32.1038 12.103 31.8272 11.4493C31.5507 10.783 31.4124 10.0664 31.4124 9.29957ZM32.8267 9.243C32.8267 9.82128 32.9335 10.3619 33.1472 10.8647C33.361 11.3676 33.6501 11.8076 34.0147 12.1847C34.3918 12.5619 34.8318 12.8573 35.3347 13.071C35.8375 13.2847 36.3718 13.3916 36.9375 13.3916C37.5032 13.3916 38.025 13.2847 38.5027 13.071C38.993 12.8573 39.4141 12.5681 39.7661 12.2036C40.1307 11.8264 40.4135 11.3864 40.6147 10.8836C40.8158 10.3681 40.9164 9.82128 40.9164 9.243C40.9164 8.65214 40.8095 8.11157 40.5958 7.62128C40.3947 7.11843 40.1118 6.68471 39.7472 6.32014C39.3827 5.95557 38.949 5.67271 38.4461 5.47157C37.9558 5.25785 37.4152 5.151 36.8244 5.151C36.2712 5.151 35.7495 5.25785 35.2592 5.47157C34.7815 5.68528 34.3604 5.98071 33.9958 6.35785C33.6312 6.72243 33.3421 7.15614 33.1284 7.659C32.9272 8.14928 32.8267 8.67728 32.8267 9.243ZM46.3212 5.37728H44.096V4.11385H46.3212V0.493283H47.7166V4.11385H50.036V5.37728H47.7166V14.4287H46.3212V5.37728ZM52.353 11.3927C52.3907 12.0339 52.573 12.5304 52.8998 12.8824C53.2392 13.2219 53.7044 13.3916 54.2952 13.3916C54.8107 13.3916 55.2255 13.2281 55.5398 12.9013C55.8667 12.5619 56.0301 12.1281 56.0301 11.6001C56.0301 11.3613 55.9987 11.1539 55.9358 10.9779C55.8855 10.7893 55.785 10.6196 55.6341 10.4687C55.4832 10.3179 55.2758 10.1796 55.0118 10.0539C54.7604 9.91557 54.4335 9.771 54.0312 9.62014C53.5284 9.43157 53.1072 9.243 52.7678 9.05443C52.4284 8.85328 52.1518 8.63957 51.9381 8.41328C51.737 8.187 51.5861 7.94185 51.4855 7.67785C51.3975 7.41385 51.3535 7.11214 51.3535 6.77271C51.3535 6.33271 51.4227 5.93671 51.561 5.58471C51.7118 5.23271 51.913 4.931 52.1644 4.67957C52.4158 4.41557 52.7238 4.21443 53.0884 4.07614C53.453 3.93785 53.849 3.86871 54.2764 3.86871C54.6912 3.86871 55.0747 3.93785 55.4267 4.07614C55.7787 4.20185 56.0804 4.39043 56.3318 4.64185C56.5832 4.88071 56.7844 5.17614 56.9352 5.52814C57.0861 5.86757 57.1678 6.24471 57.1804 6.65957H55.7661C55.6907 5.65385 55.1878 5.151 54.2575 5.151C53.8175 5.151 53.4592 5.27671 53.1827 5.52814C52.9061 5.767 52.7678 6.08757 52.7678 6.48985C52.7678 7.35728 53.5284 8.06128 55.0495 8.60185C55.8164 8.86585 56.4072 9.24928 56.8221 9.75214C57.237 10.2424 57.4444 10.8144 57.4444 11.4681C57.4444 11.9333 57.369 12.367 57.2181 12.7693C57.0672 13.159 56.8535 13.4984 56.577 13.7876C56.3004 14.0641 55.9672 14.2779 55.5775 14.4287C55.1878 14.5921 54.7604 14.6739 54.2952 14.6739C53.2895 14.6739 52.485 14.3784 51.8815 13.7876C51.2907 13.1967 50.989 12.3984 50.9764 11.3927H52.353ZM64.5101 0.493283H66.0752L72.0718 14.4287H70.5443L68.5266 9.73328H62.0398L60.0032 14.4287H58.5323L64.5101 0.493283ZM67.9798 8.46985L65.3021 2.07728L62.5678 8.46985H67.9798ZM73.8488 4.11385H75.2442V5.88643C75.6842 5.22014 76.2436 4.71728 76.9225 4.37785C77.6139 4.03843 78.4059 3.86871 79.2985 3.86871C80.0653 3.86871 80.7756 4.007 81.4293 4.28357C82.0956 4.56014 82.6739 4.94357 83.1642 5.43385C83.6545 5.91157 84.0379 6.48357 84.3145 7.14985C84.5911 7.80357 84.7293 8.51385 84.7293 9.28071C84.7293 10.035 84.5911 10.7453 84.3145 11.4116C84.0379 12.0653 83.6545 12.6373 83.1642 13.1276C82.6739 13.6053 82.0956 13.9824 81.4293 14.259C80.7631 14.5356 80.0402 14.6739 79.2608 14.6739C78.3933 14.6739 77.6202 14.5041 76.9413 14.1647C76.2625 13.8253 75.6968 13.3224 75.2442 12.6561V18.0493H73.8488V4.11385ZM79.2419 13.3916C79.8202 13.3916 80.3545 13.291 80.8448 13.0899C81.3476 12.8761 81.7813 12.587 82.1459 12.2224C82.5105 11.8579 82.7933 11.4304 82.9945 10.9401C83.2082 10.4373 83.3151 9.89671 83.3151 9.31843C83.3151 8.715 83.2082 8.15557 82.9945 7.64014C82.7933 7.12471 82.5105 6.68471 82.1459 6.32014C81.7813 5.95557 81.3476 5.67271 80.8448 5.47157C80.3419 5.25785 79.7888 5.151 79.1853 5.151C78.6196 5.151 78.0916 5.25785 77.6013 5.47157C77.1111 5.68528 76.6836 5.98071 76.3191 6.35785C75.9545 6.72243 75.6653 7.15614 75.4516 7.659C75.2505 8.16185 75.1499 8.70243 75.1499 9.28071C75.1499 9.859 75.2505 10.3996 75.4516 10.9024C75.6653 11.4053 75.9545 11.839 76.3191 12.2036C76.6962 12.5681 77.1299 12.8573 77.6202 13.071C78.1231 13.2847 78.6636 13.3916 79.2419 13.3916ZM87.0797 4.11385H88.4751V5.88643C88.9151 5.22014 89.4746 4.71728 90.1534 4.37785C90.8449 4.03843 91.6369 3.86871 92.5294 3.86871C93.2963 3.86871 94.0066 4.007 94.6603 4.28357C95.3266 4.56014 95.9049 4.94357 96.3951 5.43385C96.8854 5.91157 97.2689 6.48357 97.5454 7.14985C97.822 7.80357 97.9603 8.51385 97.9603 9.28071C97.9603 10.035 97.822 10.7453 97.5454 11.4116C97.2689 12.0653 96.8854 12.6373 96.3951 13.1276C95.9049 13.6053 95.3266 13.9824 94.6603 14.259C93.994 14.5356 93.2711 14.6739 92.4917 14.6739C91.6243 14.6739 90.8511 14.5041 90.1723 14.1647C89.4934 13.8253 88.9277 13.3224 88.4751 12.6561V18.0493H87.0797V4.11385ZM92.4729 13.3916C93.0511 13.3916 93.5854 13.291 94.0757 13.0899C94.5786 12.8761 95.0123 12.587 95.3769 12.2224C95.7414 11.8579 96.0243 11.4304 96.2254 10.9401C96.4391 10.4373 96.546 9.89671 96.546 9.31843C96.546 8.715 96.4391 8.15557 96.2254 7.64014C96.0243 7.12471 95.7414 6.68471 95.3769 6.32014C95.0123 5.95557 94.5786 5.67271 94.0757 5.47157C93.5729 5.25785 93.0197 5.151 92.4163 5.151C91.8506 5.151 91.3226 5.25785 90.8323 5.47157C90.342 5.68528 89.9146 5.98071 89.55 6.35785C89.1854 6.72243 88.8963 7.15614 88.6826 7.659C88.4814 8.16185 88.3809 8.70243 88.3809 9.28071C88.3809 9.859 88.4814 10.3996 88.6826 10.9024C88.8963 11.4053 89.1854 11.839 89.55 12.2036C89.9271 12.5681 90.3609 12.8573 90.8511 13.071C91.354 13.2847 91.8946 13.3916 92.4729 13.3916Z" fill="#8E887E"/>
</svg>
