<svg width="349" height="42" viewBox="0 0 349 42" fill="none" xmlns="http://www.w3.org/2000/svg">
<g filter="url(#filter0_d_447_25)">
<path d="M14.196 20.104H8.4V17.612H14.196V11.76H16.744V17.612H22.512V20.104H16.744V25.984H14.196V20.104ZM37.2264 9.716H27.9304V7.308H39.9424V9.716L31.7944 28H28.9384L37.2264 9.716ZM63.126 31.612C62.006 31.22 60.97 30.6133 60.018 29.792C59.0847 28.9893 58.2727 28.0467 57.582 26.964C56.8913 25.8813 56.35 24.696 55.958 23.408C55.566 22.1013 55.37 20.776 55.37 19.432C55.37 18.0693 55.5567 16.7533 55.93 15.484C56.3033 14.2147 56.8353 13.048 57.526 11.984C58.2167 10.92 59.038 9.98667 59.99 9.184C60.942 8.36267 61.9873 7.73733 63.126 7.308V9.828C62.342 10.3507 61.6327 10.9667 60.998 11.676C60.3633 12.3667 59.822 13.1227 59.374 13.944C58.926 14.7653 58.5807 15.6427 58.338 16.576C58.114 17.5093 58.002 18.4613 58.002 19.432C58.002 20.4027 58.1233 21.364 58.366 22.316C58.6087 23.2493 58.954 24.136 59.402 24.976C59.85 25.816 60.382 26.5813 60.998 27.272C61.6327 27.9627 62.342 28.5507 63.126 29.036V31.612ZM66.7446 22.176L76.6566 7.308H79.3166V22.092H81.3046V24.444H79.3166V28H76.7126V24.444H66.7446V22.176ZM76.7126 22.092V11.312L69.6006 22.092H76.7126ZM93.3912 20.748C92.9618 20.9533 92.5978 21.0933 92.2992 21.168C92.0005 21.224 91.6458 21.252 91.2352 21.252C90.3392 21.252 89.5085 21.0747 88.7432 20.72C87.9778 20.3653 87.3152 19.88 86.7552 19.264C86.1952 18.6293 85.7472 17.892 85.4112 17.052C85.0938 16.1933 84.9352 15.2787 84.9352 14.308C84.9352 13.244 85.1032 12.264 85.4392 11.368C85.7938 10.4533 86.2792 9.66933 86.8952 9.016C87.5298 8.36267 88.2765 7.85867 89.1352 7.504C89.9938 7.13067 90.9272 6.944 91.9352 6.944C92.9618 6.944 93.9138 7.13067 94.7912 7.504C95.6685 7.85867 96.4245 8.36267 97.0592 9.016C97.6938 9.65067 98.1885 10.4067 98.5432 11.284C98.9165 12.1613 99.1032 13.1133 99.1032 14.14C99.1032 14.644 99.0658 15.12 98.9912 15.568C98.9165 16.016 98.7858 16.4733 98.5992 16.94C98.4312 17.388 98.1978 17.8827 97.8992 18.424C97.6005 18.9467 97.2272 19.544 96.7792 20.216L91.5712 28H88.4912L93.3912 20.748ZM92.0192 18.9C92.6538 18.9 93.2418 18.7787 93.7832 18.536C94.3245 18.2933 94.7912 17.9667 95.1832 17.556C95.5938 17.1267 95.9112 16.6227 96.1352 16.044C96.3592 15.4653 96.4712 14.8307 96.4712 14.14C96.4712 13.4307 96.3592 12.7867 96.1352 12.208C95.9112 11.6107 95.5938 11.1067 95.1832 10.696C94.7725 10.2667 94.2872 9.93067 93.7272 9.688C93.1672 9.44533 92.5512 9.324 91.8792 9.324C91.2445 9.324 90.6658 9.44533 90.1432 9.688C89.6205 9.93067 89.1632 10.2667 88.7712 10.696C88.3978 11.1067 88.0992 11.6107 87.8752 12.208C87.6698 12.7867 87.5672 13.4307 87.5672 14.14C87.5672 14.8307 87.6792 15.4747 87.9032 16.072C88.1272 16.6507 88.4352 17.1547 88.8272 17.584C89.2192 17.9947 89.6858 18.3213 90.2272 18.564C90.7685 18.788 91.3658 18.9 92.0192 18.9ZM105.31 21.616C105.496 22.96 105.991 24.024 106.794 24.808C107.596 25.592 108.586 25.984 109.762 25.984C110.396 25.984 110.984 25.8627 111.526 25.62C112.067 25.3587 112.534 25.0133 112.926 24.584C113.336 24.1547 113.654 23.6413 113.878 23.044C114.102 22.4467 114.214 21.8027 114.214 21.112C114.214 20.44 114.102 19.8147 113.878 19.236C113.654 18.6387 113.346 18.1347 112.954 17.724C112.562 17.2947 112.095 16.9587 111.554 16.716C111.012 16.4733 110.424 16.352 109.79 16.352C109.043 16.352 108.362 16.52 107.746 16.856C107.13 17.192 106.532 17.7147 105.954 18.424L103.798 17.696L105.674 7.308H114.998V9.716H107.718L106.822 14.812C107.419 14.4947 107.96 14.2707 108.446 14.14C108.95 14.0093 109.491 13.944 110.07 13.944C111.022 13.944 111.908 14.1307 112.73 14.504C113.57 14.8587 114.288 15.3627 114.886 16.016C115.483 16.6507 115.95 17.4067 116.286 18.284C116.64 19.1613 116.818 20.104 116.818 21.112C116.818 22.1387 116.64 23.0907 116.286 23.968C115.931 24.8453 115.436 25.6107 114.802 26.264C114.186 26.9173 113.448 27.4307 112.59 27.804C111.75 28.1773 110.835 28.364 109.846 28.364C108.894 28.364 108.007 28.2053 107.186 27.888C106.364 27.5707 105.636 27.1227 105.002 26.544C104.386 25.9467 103.872 25.2373 103.462 24.416C103.07 23.576 102.818 22.6427 102.706 21.616H105.31ZM120.896 29.064C121.68 28.56 122.39 27.9627 123.024 27.272C123.659 26.5627 124.191 25.7973 124.62 24.976C125.068 24.1547 125.414 23.2773 125.656 22.344C125.899 21.392 126.02 20.4307 126.02 19.46C126.02 18.4893 125.899 17.5373 125.656 16.604C125.414 15.652 125.068 14.7653 124.62 13.944C124.172 13.104 123.631 12.3387 122.996 11.648C122.38 10.9573 121.68 10.3693 120.896 9.884V7.308C122.016 7.7 123.043 8.30667 123.976 9.128C124.928 9.93067 125.75 10.8733 126.44 11.956C127.131 13.0387 127.672 14.224 128.064 15.512C128.456 16.8 128.652 18.1253 128.652 19.488C128.652 20.8507 128.466 22.1667 128.092 23.436C127.719 24.7053 127.187 25.872 126.496 26.936C125.806 28 124.984 28.9333 124.032 29.736C123.099 30.5573 122.054 31.1827 120.896 31.612V29.064ZM149.808 9.716H146.588V7.308H152.412V28H149.808V9.716ZM161.026 14.42C161.026 12.0307 161.624 10.192 162.818 8.904C164.032 7.59733 165.74 6.944 167.942 6.944C170.145 6.944 171.853 7.59733 173.066 8.904C174.28 10.192 174.886 12.0027 174.886 14.336V20.664C174.886 23.184 174.308 25.0973 173.15 26.404C172.012 27.7107 170.332 28.364 168.11 28.364C165.833 28.364 164.078 27.7107 162.846 26.404C161.633 25.0787 161.026 23.1653 161.026 20.664V14.42ZM163.63 20.412C163.63 24.1267 165.096 25.984 168.026 25.984C169.482 25.984 170.556 25.536 171.246 24.64C171.937 23.744 172.282 22.344 172.282 20.44V14.728C172.282 11.1253 170.845 9.324 167.97 9.324C165.077 9.324 163.63 11.1253 163.63 14.728V20.412ZM187.085 20.748C186.656 20.9533 186.292 21.0933 185.993 21.168C185.694 21.224 185.34 21.252 184.929 21.252C184.033 21.252 183.202 21.0747 182.437 20.72C181.672 20.3653 181.009 19.88 180.449 19.264C179.889 18.6293 179.441 17.892 179.105 17.052C178.788 16.1933 178.629 15.2787 178.629 14.308C178.629 13.244 178.797 12.264 179.133 11.368C179.488 10.4533 179.973 9.66933 180.589 9.016C181.224 8.36267 181.97 7.85867 182.829 7.504C183.688 7.13067 184.621 6.944 185.629 6.944C186.656 6.944 187.608 7.13067 188.485 7.504C189.362 7.85867 190.118 8.36267 190.753 9.016C191.388 9.65067 191.882 10.4067 192.237 11.284C192.61 12.1613 192.797 13.1133 192.797 14.14C192.797 14.644 192.76 15.12 192.685 15.568C192.61 16.016 192.48 16.4733 192.293 16.94C192.125 17.388 191.892 17.8827 191.593 18.424C191.294 18.9467 190.921 19.544 190.473 20.216L185.265 28H182.185L187.085 20.748ZM185.713 18.9C186.348 18.9 186.936 18.7787 187.477 18.536C188.018 18.2933 188.485 17.9667 188.877 17.556C189.288 17.1267 189.605 16.6227 189.829 16.044C190.053 15.4653 190.165 14.8307 190.165 14.14C190.165 13.4307 190.053 12.7867 189.829 12.208C189.605 11.6107 189.288 11.1067 188.877 10.696C188.466 10.2667 187.981 9.93067 187.421 9.688C186.861 9.44533 186.245 9.324 185.573 9.324C184.938 9.324 184.36 9.44533 183.837 9.688C183.314 9.93067 182.857 10.2667 182.465 10.696C182.092 11.1067 181.793 11.6107 181.569 12.208C181.364 12.7867 181.261 13.4307 181.261 14.14C181.261 14.8307 181.373 15.4747 181.597 16.072C181.821 16.6507 182.129 17.1547 182.521 17.584C182.913 17.9947 183.38 18.3213 183.921 18.564C184.462 18.788 185.06 18.9 185.713 18.9ZM206.629 19.236H214.273V21.504H206.629V19.236ZM226.508 20.748C226.079 20.9533 225.715 21.0933 225.416 21.168C225.118 21.224 224.763 21.252 224.352 21.252C223.456 21.252 222.626 21.0747 221.86 20.72C221.095 20.3653 220.432 19.88 219.872 19.264C219.312 18.6293 218.864 17.892 218.528 17.052C218.211 16.1933 218.052 15.2787 218.052 14.308C218.052 13.244 218.22 12.264 218.556 11.368C218.911 10.4533 219.396 9.66933 220.012 9.016C220.647 8.36267 221.394 7.85867 222.252 7.504C223.111 7.13067 224.044 6.944 225.052 6.944C226.079 6.944 227.031 7.13067 227.908 7.504C228.786 7.85867 229.542 8.36267 230.176 9.016C230.811 9.65067 231.306 10.4067 231.66 11.284C232.034 12.1613 232.22 13.1133 232.22 14.14C232.22 14.644 232.183 15.12 232.108 15.568C232.034 16.016 231.903 16.4733 231.716 16.94C231.548 17.388 231.315 17.8827 231.016 18.424C230.718 18.9467 230.344 19.544 229.896 20.216L224.688 28H221.608L226.508 20.748ZM225.136 18.9C225.771 18.9 226.359 18.7787 226.9 18.536C227.442 18.2933 227.908 17.9667 228.3 17.556C228.711 17.1267 229.028 16.6227 229.252 16.044C229.476 15.4653 229.588 14.8307 229.588 14.14C229.588 13.4307 229.476 12.7867 229.252 12.208C229.028 11.6107 228.711 11.1067 228.3 10.696C227.89 10.2667 227.404 9.93067 226.844 9.688C226.284 9.44533 225.668 9.324 224.996 9.324C224.362 9.324 223.783 9.44533 223.26 9.688C222.738 9.93067 222.28 10.2667 221.888 10.696C221.515 11.1067 221.216 11.6107 220.992 12.208C220.787 12.7867 220.684 13.4307 220.684 14.14C220.684 14.8307 220.796 15.4747 221.02 16.072C221.244 16.6507 221.552 17.1547 221.944 17.584C222.336 17.9947 222.803 18.3213 223.344 18.564C223.886 18.788 224.483 18.9 225.136 18.9ZM244.307 20.748C243.877 20.9533 243.513 21.0933 243.215 21.168C242.916 21.224 242.561 21.252 242.151 21.252C241.255 21.252 240.424 21.0747 239.659 20.72C238.893 20.3653 238.231 19.88 237.671 19.264C237.111 18.6293 236.663 17.892 236.327 17.052C236.009 16.1933 235.851 15.2787 235.851 14.308C235.851 13.244 236.019 12.264 236.355 11.368C236.709 10.4533 237.195 9.66933 237.811 9.016C238.445 8.36267 239.192 7.85867 240.051 7.504C240.909 7.13067 241.843 6.944 242.851 6.944C243.877 6.944 244.829 7.13067 245.707 7.504C246.584 7.85867 247.34 8.36267 247.975 9.016C248.609 9.65067 249.104 10.4067 249.459 11.284C249.832 12.1613 250.019 13.1133 250.019 14.14C250.019 14.644 249.981 15.12 249.907 15.568C249.832 16.016 249.701 16.4733 249.515 16.94C249.347 17.388 249.113 17.8827 248.815 18.424C248.516 18.9467 248.143 19.544 247.695 20.216L242.487 28H239.407L244.307 20.748ZM242.935 18.9C243.569 18.9 244.157 18.7787 244.699 18.536C245.24 18.2933 245.707 17.9667 246.099 17.556C246.509 17.1267 246.827 16.6227 247.051 16.044C247.275 15.4653 247.387 14.8307 247.387 14.14C247.387 13.4307 247.275 12.7867 247.051 12.208C246.827 11.6107 246.509 11.1067 246.099 10.696C245.688 10.2667 245.203 9.93067 244.643 9.688C244.083 9.44533 243.467 9.324 242.795 9.324C242.16 9.324 241.581 9.44533 241.059 9.688C240.536 9.93067 240.079 10.2667 239.687 10.696C239.313 11.1067 239.015 11.6107 238.791 12.208C238.585 12.7867 238.483 13.4307 238.483 14.14C238.483 14.8307 238.595 15.4747 238.819 16.072C239.043 16.6507 239.351 17.1547 239.743 17.584C240.135 17.9947 240.601 18.3213 241.143 18.564C241.684 18.788 242.281 18.9 242.935 18.9ZM253.817 19.236H261.461V21.504H253.817V19.236ZM273.697 20.748C273.268 20.9533 272.904 21.0933 272.605 21.168C272.306 21.224 271.952 21.252 271.541 21.252C270.645 21.252 269.814 21.0747 269.049 20.72C268.284 20.3653 267.621 19.88 267.061 19.264C266.501 18.6293 266.053 17.892 265.717 17.052C265.4 16.1933 265.241 15.2787 265.241 14.308C265.241 13.244 265.409 12.264 265.745 11.368C266.1 10.4533 266.585 9.66933 267.201 9.016C267.836 8.36267 268.582 7.85867 269.441 7.504C270.3 7.13067 271.233 6.944 272.241 6.944C273.268 6.944 274.22 7.13067 275.097 7.504C275.974 7.85867 276.73 8.36267 277.365 9.016C278 9.65067 278.494 10.4067 278.849 11.284C279.222 12.1613 279.409 13.1133 279.409 14.14C279.409 14.644 279.372 15.12 279.297 15.568C279.222 16.016 279.092 16.4733 278.905 16.94C278.737 17.388 278.504 17.8827 278.205 18.424C277.906 18.9467 277.533 19.544 277.085 20.216L271.877 28H268.797L273.697 20.748ZM272.325 18.9C272.96 18.9 273.548 18.7787 274.089 18.536C274.63 18.2933 275.097 17.9667 275.489 17.556C275.9 17.1267 276.217 16.6227 276.441 16.044C276.665 15.4653 276.777 14.8307 276.777 14.14C276.777 13.4307 276.665 12.7867 276.441 12.208C276.217 11.6107 275.9 11.1067 275.489 10.696C275.078 10.2667 274.593 9.93067 274.033 9.688C273.473 9.44533 272.857 9.324 272.185 9.324C271.55 9.324 270.972 9.44533 270.449 9.688C269.926 9.93067 269.469 10.2667 269.077 10.696C268.704 11.1067 268.405 11.6107 268.181 12.208C267.976 12.7867 267.873 13.4307 267.873 14.14C267.873 14.8307 267.985 15.4747 268.209 16.072C268.433 16.6507 268.741 17.1547 269.133 17.584C269.525 17.9947 269.992 18.3213 270.533 18.564C271.074 18.788 271.672 18.9 272.325 18.9ZM291.496 20.748C291.066 20.9533 290.702 21.0933 290.404 21.168C290.105 21.224 289.75 21.252 289.34 21.252C288.444 21.252 287.613 21.0747 286.848 20.72C286.082 20.3653 285.42 19.88 284.86 19.264C284.3 18.6293 283.852 17.892 283.516 17.052C283.198 16.1933 283.04 15.2787 283.04 14.308C283.04 13.244 283.208 12.264 283.544 11.368C283.898 10.4533 284.384 9.66933 285 9.016C285.634 8.36267 286.381 7.85867 287.24 7.504C288.098 7.13067 289.032 6.944 290.04 6.944C291.066 6.944 292.018 7.13067 292.896 7.504C293.773 7.85867 294.529 8.36267 295.164 9.016C295.798 9.65067 296.293 10.4067 296.648 11.284C297.021 12.1613 297.208 13.1133 297.208 14.14C297.208 14.644 297.17 15.12 297.096 15.568C297.021 16.016 296.89 16.4733 296.704 16.94C296.536 17.388 296.302 17.8827 296.004 18.424C295.705 18.9467 295.332 19.544 294.884 20.216L289.676 28H286.596L291.496 20.748ZM290.124 18.9C290.758 18.9 291.346 18.7787 291.888 18.536C292.429 18.2933 292.896 17.9667 293.288 17.556C293.698 17.1267 294.016 16.6227 294.24 16.044C294.464 15.4653 294.576 14.8307 294.576 14.14C294.576 13.4307 294.464 12.7867 294.24 12.208C294.016 11.6107 293.698 11.1067 293.288 10.696C292.877 10.2667 292.392 9.93067 291.832 9.688C291.272 9.44533 290.656 9.324 289.984 9.324C289.349 9.324 288.77 9.44533 288.248 9.688C287.725 9.93067 287.268 10.2667 286.876 10.696C286.502 11.1067 286.204 11.6107 285.98 12.208C285.774 12.7867 285.672 13.4307 285.672 14.14C285.672 14.8307 285.784 15.4747 286.008 16.072C286.232 16.6507 286.54 17.1547 286.932 17.584C287.324 17.9947 287.79 18.3213 288.332 18.564C288.873 18.788 289.47 18.9 290.124 18.9Z" fill="#8E887E"/>
<path d="M7 31.612H297.908V33.516H7V31.612Z" fill="#8E887E"/>
</g>
<defs>
<filter id="filter0_d_447_25" x="0" y="0.943848" width="304.907" height="40.5723" filterUnits="userSpaceOnUse" color-interpolation-filters="sRGB">
<feFlood flood-opacity="0" result="BackgroundImageFix"/>
<feColorMatrix in="SourceAlpha" type="matrix" values="0 0 0 0 0 0 0 0 0 0 0 0 0 0 0 0 0 0 127 0" result="hardAlpha"/>
<feOffset dy="1"/>
<feGaussianBlur stdDeviation="3.5"/>
<feComposite in2="hardAlpha" operator="out"/>
<feColorMatrix type="matrix" values="0 0 0 0 0.913725 0 0 0 0 0.901961 0 0 0 0 0.894118 0 0 0 1 0"/>
<feBlend mode="normal" in2="BackgroundImageFix" result="effect1_dropShadow_447_25"/>
<feBlend mode="normal" in="SourceGraphic" in2="effect1_dropShadow_447_25" result="shape"/>
</filter>
</defs>
</svg>
