<svg width="206" height="294" viewBox="0 0 206 294" xmlns="http://www.w3.org/2000/svg">
  <defs>
    <mask id="cut">
      <!-- white = visible, black = cut-out -->
      <rect width="100%" height="100%" fill="white"/>
      <path d="M103.279 20.3754V273.862M157.671 253.511V113.584C157.671 104.198 155.299 95.3649 151.131 87.6583C148.609 83.0078 145.442 78.766 141.738 75.0581C131.896 65.1975 118.298 59.1036 103.279 59.1036C82.6074 59.1036 64.6278 70.6507 55.4262 87.6583C51.2544 95.3649 48.8831 104.198 48.8831 113.584V253.507M26.5255 70.739C45.2894 74.6016 62.0577 83.932 75.096 96.9924C92.5086 114.438 103.279 138.537 103.279 165.148M103.279 165.148V184.803M103.279 165.148C103.279 118.599 136.219 79.7528 180.032 70.739M103.279 184.803C57.595 184.803 20.4611 148.14 19.5994 102.589M103.279 184.803C126.391 184.803 147.317 175.421 162.461 160.254C177.248 145.438 186.535 125.098 186.958 102.589M103.279 254.203V273.858M103.279 254.203V254.207C103.279 227.596 92.5086 203.497 75.096 186.051C60.467 171.4 41.1507 161.444 19.5847 158.634V190.028M103.279 254.203C103.279 205.228 139.746 164.78 186.973 158.631V190.024M103.279 273.858C57.0537 273.858 19.5847 236.323 19.5847 190.028M103.279 273.858C126.391 273.858 147.317 264.476 162.461 249.31C177.605 234.132 186.973 213.177 186.973 190.024M19.5847 190.028V104.206C19.5847 57.9106 57.0537 20.379 103.279 20.379C126.391 20.379 147.317 29.7573 162.461 44.9276C177.605 60.1088 186.973 81.06 186.973 104.206V104.202V190.024" stroke="black" stroke-width="3.06514" stroke-miterlimit="10" fill="none"/>
      <path d="M204.65 100.356L187.065 100.459M203.745 87.7562L186.321 90.1312M201.233 75.366L184.27 79.9944M197.11 63.4176L180.894 70.2184M191.476 52.1136L176.273 60.9469M184.473 41.6233L170.517 52.3198M176.177 32.1419L163.672 44.5027M166.784 23.7541L155.918 37.5767M156.43 16.6035L147.357 31.6632M145.269 10.8005L138.119 26.8655M133.49 6.38566L128.369 23.2055M121.258 3.49154L118.228 20.8121M108.783 2.0592L107.863 19.6154M96.2386 2.17335L97.4169 19.7148M83.7784 3.76033L87.0665 21.033M71.598 6.86802L76.9739 23.6068M59.8779 11.4301L67.2716 27.381M48.8206 17.4246L58.1216 32.3444M38.5623 24.7151L49.638 38.372M29.3055 33.2465L41.994 45.4195M21.1718 42.8715L35.2926 53.3508M14.2936 53.4502L29.6332 62.0442M8.86252 64.8573L25.1852 71.3967M4.92636 76.8683L21.9634 81.2242M2.614 89.2954L20.0745 91.3905M1.896 101.818H19.4817M1.896 113.321H19.4817M1.896 124.82H19.4817M1.896 136.323H19.4817M1.896 147.826H19.4817M1.896 159.329H19.4817M1.896 170.828H19.4817M1.896 182.331H19.4817M1.90704 193.885L19.4927 193.782M2.81284 206.482L20.2365 204.107M5.32403 218.872L22.2874 214.244M9.44797 230.824L25.6639 224.023M15.0816 242.124L30.2849 233.287M22.0849 252.618L36.0401 241.922M30.388 262.096L42.8887 249.732M39.7774 270.48L50.6432 256.658M50.1314 277.631L59.2078 262.571M61.2918 283.434L68.4425 267.372M73.0672 287.852L78.189 271.032M85.2991 290.746L88.3295 273.429M97.7777 292.179L98.6982 274.622M110.323 292.065L109.144 274.523M122.779 290.481L119.491 273.212M134.959 287.37L129.584 270.631M146.683 282.811L139.29 266.857M157.741 276.813L148.44 261.893M167.999 269.526L156.927 255.87M177.259 260.991L164.567 248.822M185.389 251.366L171.269 240.891M192.264 240.788L176.924 232.194M197.695 229.381L181.372 222.841M201.631 217.37L184.594 213.014M203.944 204.943L186.483 202.847M204.662 192.42H187.076M204.662 180.917H187.076M204.662 169.418H187.076M204.662 157.915H187.076M204.662 146.412H187.076M204.662 134.913H187.076M204.662 123.41H187.076M204.662 111.907H187.076" stroke="black" stroke-width="2.38864" stroke-miterlimit="10" fill="none"/>
      <path d="M204.428 97.9811V196.249C204.428 222.756 193.105 246.752 174.801 264.132C156.498 281.497 131.209 292.237 103.273 292.237C47.4084 292.241 2.12598 249.26 2.12598 196.253V97.9848C2.12598 44.97 47.4084 2 103.277 2C131.213 2 156.498 12.737 174.805 30.1054C193.109 47.4886 204.431 71.4774 204.431 97.9811H204.428Z" stroke="black" stroke-width="2.38864" stroke-miterlimit="10" fill="none"/>
    </mask>
  </defs>

  <!-- fill where strokes will be holes -->
  <rect width="100%" height="100%" fill="#000" mask="url(#cut)"/>
</svg>
