<svg width="122" height="29" viewBox="0 0 122 29" fill="none" xmlns="http://www.w3.org/2000/svg">
<g clip-path="url(#clip0_495_32)">
<path d="M-0.000159612 25.2009C-0.000159612 24.4349 0.309337 23.7579 0.932199 23.1776C1.55506 22.5973 2.31333 22.3033 3.21474 22.3033C4.06198 22.3033 4.80091 22.6012 5.43538 23.197C6.06984 23.7927 6.38708 24.4582 6.38708 25.2009C6.38708 25.994 6.07371 26.6904 5.45472 27.2823C4.83186 27.8781 4.0852 28.176 3.21087 28.176C2.28625 28.176 1.51637 27.8858 0.908987 27.3017C0.3016 26.7213 -0.00402832 26.0172 -0.00402832 25.1971" fill="#8E887E" fill-opacity="0.86"/>
<path d="M27.0652 20.5584C27.0652 19.7111 26.7479 18.9993 26.1135 18.4151C25.479 17.8348 24.6588 17.3744 23.653 17.0456C22.6471 16.7168 21.5368 16.4111 20.3181 16.1326C19.0995 15.854 17.8847 15.5252 16.6661 15.1422C15.4474 14.7592 14.3371 14.2872 13.3313 13.734C12.3254 13.1769 11.5052 12.4031 10.8708 11.4128C10.2363 10.4224 9.91906 9.23854 9.91906 7.86128C9.91906 5.69093 10.952 3.82621 13.014 2.26712C15.0258 0.754459 17.6217 6.10352e-05 20.794 6.10352e-05C25.3978 6.10352e-05 28.9802 1.32316 31.549 3.96936L28.9299 7.38156C26.6009 5.45107 23.8503 4.48389 20.6741 4.48389C18.9564 4.48389 17.5598 4.76244 16.4881 5.31567C15.4165 5.87276 14.8826 6.67745 14.8826 7.73748C14.8826 8.21333 15.0025 8.63889 15.2385 9.00642C15.4784 9.37781 15.7647 9.67957 16.1129 9.91943C16.4572 10.1554 16.9485 10.3875 17.583 10.6158C18.2174 10.8402 18.7939 11.0181 19.3084 11.1497C19.823 11.2812 20.5116 11.4553 21.3743 11.6642C22.2332 11.877 22.9295 12.0627 23.4557 12.2213C24.7246 12.5927 25.6995 12.8945 26.3727 13.1343C27.0458 13.3703 27.8157 13.7572 28.6746 14.2833C29.5334 14.8133 30.2298 15.4207 30.7559 16.1094C31.6032 17.2738 32.0249 18.6356 32.0249 20.1986C32.0249 22.6088 30.9919 24.578 28.9299 26.1138C26.8911 27.6497 24.3687 28.4157 21.3511 28.4157C18.8906 28.4157 16.55 27.9283 14.3255 26.9456C12.0739 25.9939 10.3408 24.7869 9.12598 23.3322L11.985 19.9587C14.4725 22.6049 17.7416 23.928 21.7883 23.928C23.4557 23.928 24.7517 23.6301 25.6763 23.0344C26.6009 22.4386 27.0652 21.6107 27.0652 20.5545" fill="#8E887E" fill-opacity="0.86"/>
<path d="M62.4253 28.0983H57.8989V7.46265H62.4253V9.32737C63.9573 7.79149 66.0735 7.02549 68.7739 7.02549C74.3022 7.02549 77.0684 10.1591 77.0684 16.4303V28.0983H72.542V16.7862C72.542 14.8287 72.1319 13.4127 71.3117 12.5384C70.4916 11.6641 69.2072 11.2308 67.4624 11.2308C66.3521 11.2308 65.3462 11.5403 64.4448 12.1631C63.5434 12.786 62.8702 13.6371 62.4214 14.7203V28.0945L62.4253 28.0983Z" fill="#8E887E" fill-opacity="0.86"/>
<path d="M93.1815 22.2259C93.1815 21.7229 92.8256 21.278 92.1099 20.895C91.3942 20.512 90.2065 20.0749 88.5391 19.5835C86.8717 19.0961 85.7343 18.744 85.1269 18.5351C83.8309 18.0593 82.767 17.3513 81.9313 16.4112C81.0996 15.4711 80.6817 14.3801 80.6817 13.1383C80.6817 11.2349 81.4361 9.72994 82.9449 8.6351C84.4537 7.53639 86.5312 6.98703 89.1736 6.98703C90.8951 6.98703 92.5277 7.33908 94.0752 8.03932C95.6227 8.73956 96.7678 9.60615 97.5106 10.6391L94.4118 13.5754C93.0113 11.9893 91.0112 11.1962 88.4192 11.1962C86.3804 11.1962 85.3629 11.8152 85.3629 13.0609C85.3629 13.5638 85.7923 14.001 86.6512 14.3685C87.51 14.7399 88.5507 15.0958 89.7655 15.4402C90.9841 15.7845 92.2066 16.1868 93.4369 16.6511C94.6671 17.1153 95.7117 17.8155 96.5705 18.7556C97.4294 19.6957 97.8588 20.8409 97.8588 22.1872C97.8588 24.2492 97.0541 25.8122 95.437 26.8683C93.8237 27.9283 91.8004 28.4545 89.367 28.4545C87.1967 28.4545 85.2584 27.998 83.5523 27.085C81.8462 26.172 80.5928 24.9727 79.7997 23.4909L83.3705 21.0304C83.9508 21.9821 84.8406 22.7559 86.0283 23.3517C87.2199 23.9474 88.4772 24.2453 89.7964 24.2453C90.8023 24.2453 91.6147 24.0751 92.2376 23.7308C92.8566 23.3865 93.1699 22.8836 93.1699 22.222" fill="#8E887E" fill-opacity="0.86"/>
<path d="M45.1245 7.11092C39.1086 7.11092 34.2147 12.0048 34.2147 18.0207C34.2147 24.0365 39.1086 28.9304 45.1245 28.9304C49.5 28.9304 53.4615 26.2494 55.156 22.2917H50.4826C49.2021 23.8818 47.2407 24.8799 45.1245 24.8799C42.045 24.8799 39.4336 22.8411 38.5709 20.044H51.6819C51.6819 20.044 51.6819 20.0479 51.6819 20.0517H51.8909L51.8715 20.044H56.0381V18.0207C56.0381 12.0048 51.1442 7.11092 45.1283 7.11092M38.5709 15.9935C39.4375 13.1964 42.0489 11.1576 45.1245 11.1576C48.2001 11.1576 50.8115 13.1964 51.6781 15.9935H38.5709Z" fill="#8E887E" fill-opacity="0.86"/>
<path d="M110.212 7.11092C104.196 7.11092 99.3019 12.0048 99.3019 18.0207C99.3019 24.0365 104.196 28.9304 110.212 28.9304C114.587 28.9304 118.549 26.2494 120.243 22.2917H115.57C114.289 23.8818 112.328 24.8799 110.216 24.8799C107.136 24.8799 104.525 22.8411 103.662 20.044H116.773C116.773 20.044 116.773 20.0479 116.773 20.0517H116.982L116.963 20.044H121.129V18.0207C121.129 12.0048 116.235 7.11092 110.219 7.11092M103.654 15.9935C104.521 13.1964 107.132 11.1576 110.208 11.1576C113.283 11.1576 115.899 13.1964 116.761 15.9935H103.654Z" fill="#8E887E" fill-opacity="0.86"/>
</g>
<defs>
<clipPath id="clip0_495_32">
<rect width="121.118" height="28.9263" fill="white"/>
</clipPath>
</defs>
</svg>
