<svg width="122" height="29" viewBox="0 0 122 29" fill="none" xmlns="http://www.w3.org/2000/svg">
<g clip-path="url(#clip0_552_140)" filter="url(#filter0_i_552_140)">
<path d="M-0.000281682 25.2009C-0.000281682 24.4349 0.309215 23.7579 0.932077 23.1776C1.55494 22.5972 2.31321 22.3032 3.21462 22.3032C4.06186 22.3032 4.80079 22.6011 5.43525 23.1969C6.06972 23.7927 6.38696 24.4581 6.38696 25.2009C6.38696 25.994 6.07359 26.6903 5.4546 27.2822C4.83174 27.878 4.08507 28.1759 3.21075 28.1759C2.28612 28.1759 1.51625 27.8858 0.908865 27.3016C0.301477 26.7213 -0.00415039 26.0172 -0.00415039 25.197" fill="#8E887E" fill-opacity="0.3"/>
<path d="M27.0652 20.5583C27.0652 19.7111 26.7479 18.9992 26.1135 18.4151C25.479 17.8347 24.6588 17.3744 23.653 17.0455C22.6471 16.7167 21.5368 16.4111 20.3181 16.1325C19.0995 15.854 17.8847 15.5251 16.6661 15.1421C15.4474 14.7591 14.3371 14.2871 13.3313 13.7339C12.3254 13.1768 11.5052 12.4031 10.8708 11.4127C10.2363 10.4223 9.91906 9.23848 9.91906 7.86122C9.91906 5.69087 10.952 3.82615 13.014 2.26706C15.0258 0.754398 17.6217 0 20.794 0C25.3978 0 28.9802 1.3231 31.549 3.9693L28.9299 7.3815C26.6009 5.45101 23.8503 4.48383 20.6741 4.48383C18.9564 4.48383 17.5598 4.76238 16.4881 5.31561C15.4165 5.8727 14.8826 6.67739 14.8826 7.73742C14.8826 8.21327 15.0025 8.63883 15.2385 9.00635C15.4784 9.37775 15.7647 9.67951 16.1129 9.91937C16.4572 10.1554 16.9485 10.3875 17.583 10.6157C18.2174 10.8401 18.7939 11.0181 19.3084 11.1496C19.823 11.2812 20.5116 11.4552 21.3743 11.6642C22.2332 11.8769 22.9295 12.0626 23.4557 12.2213C24.7246 12.5926 25.6995 12.8944 26.3727 13.1343C27.0458 13.3703 27.8157 13.7571 28.6746 14.2833C29.5334 14.8133 30.2298 15.4207 30.7559 16.1093C31.6032 17.2738 32.0249 18.6356 32.0249 20.1985C32.0249 22.6087 30.9919 24.5779 28.9299 26.1138C26.8911 27.6497 24.3687 28.4157 21.3511 28.4157C18.8906 28.4157 16.55 27.9282 14.3255 26.9456C12.0739 25.9939 10.3408 24.7868 9.12598 23.3322L11.985 19.9587C14.4725 22.6049 17.7416 23.928 21.7883 23.928C23.4557 23.928 24.7517 23.6301 25.6763 23.0343C26.6009 22.4385 27.0652 21.6106 27.0652 20.5544" fill="#8E887E" fill-opacity="0.3"/>
<path d="M62.4253 28.0982H57.8989V7.46256H62.4253V9.32727C63.9573 7.7914 66.0735 7.02539 68.7739 7.02539C74.3022 7.02539 77.0684 10.159 77.0684 16.4302V28.0982H72.542V16.7861C72.542 14.8286 72.1319 13.4126 71.3117 12.5383C70.4916 11.664 69.2072 11.2307 67.4624 11.2307C66.3521 11.2307 65.3462 11.5402 64.4448 12.163C63.5434 12.7859 62.8702 13.637 62.4214 14.7203V28.0944L62.4253 28.0982Z" fill="#8E887E" fill-opacity="0.3"/>
<path d="M93.1815 22.2259C93.1815 21.723 92.8256 21.2781 92.1099 20.8951C91.3942 20.5121 90.2065 20.0749 88.5391 19.5836C86.8717 19.0961 85.7343 18.7441 85.1269 18.5352C83.8309 18.0593 82.767 17.3513 81.9313 16.4112C81.0996 15.4711 80.6817 14.3802 80.6817 13.1383C80.6817 11.2349 81.4361 9.72997 82.9449 8.63513C84.4537 7.53642 86.5312 6.98706 89.1736 6.98706C90.8951 6.98706 92.5277 7.33911 94.0752 8.03935C95.6227 8.73959 96.7678 9.60618 97.5106 10.6391L94.4118 13.5755C93.0113 11.9893 91.0112 11.1962 88.4192 11.1962C86.3804 11.1962 85.3629 11.8152 85.3629 13.0609C85.3629 13.5639 85.7923 14.001 86.6512 14.3686C87.51 14.74 88.5507 15.0959 89.7655 15.4402C90.9841 15.7845 92.2066 16.1868 93.4369 16.6511C94.6671 17.1153 95.7117 17.8156 96.5705 18.7557C97.4294 19.6958 97.8588 20.8409 97.8588 22.1872C97.8588 24.2492 97.0541 25.8122 95.437 26.8684C93.8237 27.9284 91.8004 28.4545 89.367 28.4545C87.1967 28.4545 85.2584 27.998 83.5523 27.085C81.8462 26.172 80.5928 24.9727 79.7997 23.491L83.3705 21.0305C83.9508 21.9822 84.8406 22.7559 86.0283 23.3517C87.2199 23.9475 88.4772 24.2454 89.7964 24.2454C90.8023 24.2454 91.6147 24.0751 92.2376 23.7308C92.8566 23.3865 93.1699 22.8836 93.1699 22.222" fill="#8E887E" fill-opacity="0.3"/>
<path d="M45.1245 7.11084C39.1086 7.11084 34.2147 12.0048 34.2147 18.0206C34.2147 24.0364 39.1086 28.9304 45.1245 28.9304C49.5 28.9304 53.4615 26.2493 55.156 22.2916H50.4826C49.2021 23.8817 47.2407 24.8798 45.1245 24.8798C42.045 24.8798 39.4336 22.841 38.5709 20.0439H51.6819C51.6819 20.0439 51.6819 20.0478 51.6819 20.0517H51.8909L51.8715 20.0439H56.0381V18.0206C56.0381 12.0048 51.1442 7.11084 45.1283 7.11084M38.5709 15.9934C39.4375 13.1963 42.0489 11.1575 45.1245 11.1575C48.2001 11.1575 50.8115 13.1963 51.6781 15.9934H38.5709Z" fill="#8E887E" fill-opacity="0.3"/>
<path d="M110.212 7.11084C104.196 7.11084 99.3019 12.0048 99.3019 18.0206C99.3019 24.0364 104.196 28.9304 110.212 28.9304C114.587 28.9304 118.549 26.2493 120.243 22.2916H115.57C114.289 23.8817 112.328 24.8798 110.216 24.8798C107.136 24.8798 104.525 22.841 103.662 20.0439H116.773C116.773 20.0439 116.773 20.0478 116.773 20.0517H116.982L116.963 20.0439H121.129V18.0206C121.129 12.0048 116.235 7.11084 110.219 7.11084M103.654 15.9934C104.521 13.1963 107.132 11.1575 110.208 11.1575C113.283 11.1575 115.899 13.1963 116.761 15.9934H103.654Z" fill="#8E887E" fill-opacity="0.3"/>
</g>
<defs>
<filter id="filter0_i_552_140" x="0" y="0" width="121.118" height="30.9263" filterUnits="userSpaceOnUse" color-interpolation-filters="sRGB">
<feFlood flood-opacity="0" result="BackgroundImageFix"/>
<feBlend mode="normal" in="SourceGraphic" in2="BackgroundImageFix" result="shape"/>
<feColorMatrix in="SourceAlpha" type="matrix" values="0 0 0 0 0 0 0 0 0 0 0 0 0 0 0 0 0 0 127 0" result="hardAlpha"/>
<feOffset dy="2"/>
<feGaussianBlur stdDeviation="1.5"/>
<feComposite in2="hardAlpha" operator="arithmetic" k2="-1" k3="1"/>
<feColorMatrix type="matrix" values="0 0 0 0 0.556863 0 0 0 0 0.533333 0 0 0 0 0.494118 0 0 0 0.56 0"/>
<feBlend mode="normal" in2="shape" result="effect1_innerShadow_552_140"/>
</filter>
<clipPath id="clip0_552_140">
<rect width="121.118" height="28.9263" fill="white"/>
</clipPath>
</defs>
</svg>
