<svg width="1201" height="287" viewBox="0 0 1201 287" fill="none" xmlns="http://www.w3.org/2000/svg">
<g clip-path="url(#clip0_574_16)" filter="url(#filter0_i_574_16)">
<path d="M0.556152 249.85C0.556152 242.26 3.62256 235.552 9.7937 229.803C15.9648 224.053 23.4775 221.14 32.4085 221.14C40.8027 221.14 48.1238 224.092 54.4099 229.995C60.6961 235.897 63.8391 242.49 63.8391 249.85C63.8391 257.707 60.7344 264.607 54.6016 270.471C48.4304 276.374 41.0327 279.325 32.3701 279.325C23.2092 279.325 15.5815 276.451 9.56372 270.663C3.5459 264.913 0.517822 257.937 0.517822 249.811" fill="#8E887E" fill-opacity="0.3"/>
<path d="M268.713 203.852C268.713 195.458 265.57 188.405 259.284 182.617C252.998 176.868 244.872 172.307 234.906 169.049C224.94 165.791 213.939 162.762 201.866 160.003C189.792 157.243 177.756 153.985 165.682 150.19C153.608 146.396 142.607 141.719 132.641 136.238C122.676 130.719 114.55 123.053 108.263 113.24C101.977 103.428 98.8342 91.6985 98.8342 78.053C98.8342 56.5498 109.068 38.0747 129.498 22.6277C149.43 7.64063 175.149 0.16626 206.58 0.16626C252.193 0.16626 287.687 13.2752 313.138 39.4929L287.188 73.3001C264.114 54.1734 236.861 44.5908 205.392 44.5908C188.373 44.5908 174.536 47.3506 163.919 52.8318C153.301 58.3513 148.012 66.324 148.012 76.8264C148.012 81.541 149.2 85.7573 151.538 89.3987C153.915 93.0784 156.751 96.0681 160.201 98.4446C163.612 100.783 168.48 103.083 174.766 105.344C181.052 107.567 186.763 109.33 191.861 110.634C196.959 111.937 203.782 113.662 212.33 115.731C220.839 117.84 227.738 119.679 232.951 121.251C245.523 124.931 255.183 127.92 261.852 130.297C268.522 132.635 276.149 136.468 284.659 141.681C293.168 146.932 300.067 152.95 305.28 159.773C313.674 171.31 317.852 184.802 317.852 200.288C317.852 224.167 307.618 243.677 287.188 258.894C266.988 274.111 241.997 281.701 212.1 281.701C187.722 281.701 164.532 276.871 142.492 267.135C120.184 257.706 103.012 245.747 90.9766 231.335L119.302 197.911C143.949 224.129 176.338 237.238 216.431 237.238C232.951 237.238 245.792 234.286 254.953 228.384C264.114 222.481 268.713 214.278 268.713 203.814" fill="#8E887E" fill-opacity="0.3"/>
<path d="M619.052 278.556H574.205V74.103H619.052V92.5781C634.23 77.3611 655.197 69.7717 681.951 69.7717C736.725 69.7717 764.131 100.819 764.131 162.952V278.556H719.285V166.479C719.285 147.084 715.222 133.055 707.096 124.392C698.97 115.73 686.244 111.437 668.957 111.437C657.957 111.437 647.991 114.503 639.06 120.674C630.129 126.845 623.459 135.278 619.013 146.01V278.517L619.052 278.556Z" fill="#8E887E" fill-opacity="0.3"/>
<path d="M923.776 220.374C923.776 215.391 920.249 210.983 913.158 207.189C906.067 203.394 894.3 199.063 877.78 194.195C861.259 189.365 849.99 185.877 843.972 183.807C831.132 179.093 820.591 172.078 812.312 162.764C804.071 153.45 799.931 142.641 799.931 130.337C799.931 111.479 807.405 96.5681 822.354 85.7207C837.303 74.835 857.886 69.3921 884.066 69.3921C901.123 69.3921 917.298 72.8801 932.63 79.8179C947.962 86.7556 959.308 95.3416 966.667 105.576L935.965 134.668C922.089 118.953 902.272 111.095 876.591 111.095C856.391 111.095 846.311 117.228 846.311 129.57C846.311 134.553 850.565 138.885 859.074 142.526C867.584 146.206 877.895 149.732 889.93 153.143C902.004 156.555 914.116 160.541 926.305 165.141C938.494 169.74 948.844 176.678 957.353 185.992C965.862 195.306 970.117 206.652 970.117 219.991C970.117 240.421 962.144 255.906 946.122 266.37C930.138 276.873 910.092 282.086 885.982 282.086C864.479 282.086 845.276 277.563 828.372 268.517C811.468 259.471 799.05 247.589 791.192 232.908L826.571 208.53C832.32 217.96 841.136 225.626 852.903 231.528C864.709 237.431 877.166 240.383 890.237 240.383C900.203 240.383 908.252 238.696 914.423 235.285C920.556 231.873 923.661 226.89 923.661 220.336" fill="#8E887E" fill-opacity="0.3"/>
<path d="M447.638 70.6184C388.035 70.6184 339.548 119.106 339.548 178.709C339.548 238.313 388.035 286.8 447.638 286.8C490.99 286.8 530.24 260.237 547.028 221.026H500.726C488.038 236.779 468.605 246.668 447.638 246.668C417.128 246.668 391.255 226.469 382.707 198.756H512.608C512.608 198.756 512.608 198.794 512.608 198.833H514.678L514.486 198.756H555.768V178.709C555.768 119.106 507.28 70.6184 447.677 70.6184M382.707 158.624C391.293 130.912 417.166 110.712 447.638 110.712C478.111 110.712 503.984 130.912 512.57 158.624H382.707Z" fill="#8E887E" fill-opacity="0.3"/>
<path d="M1092.51 70.6184C1032.9 70.6184 984.414 119.106 984.414 178.709C984.414 238.313 1032.9 286.8 1092.51 286.8C1135.86 286.8 1175.11 260.237 1191.9 221.026H1145.59C1132.91 236.779 1113.47 246.668 1092.54 246.668C1062.03 246.668 1036.16 226.469 1027.61 198.756H1157.51C1157.51 198.756 1157.51 198.794 1157.51 198.833H1159.58L1159.39 198.756H1200.67V178.709C1200.67 119.106 1152.19 70.6184 1092.58 70.6184M1027.54 158.624C1036.12 130.912 1061.99 110.712 1092.47 110.712C1122.94 110.712 1148.85 130.912 1157.4 158.624H1027.54Z" fill="#8E887E" fill-opacity="0.3"/>
</g>
<defs>
<filter id="filter0_i_574_16" x="0.558838" y="0.16626" width="1200" height="306.409" filterUnits="userSpaceOnUse" color-interpolation-filters="sRGB">
<feFlood flood-opacity="0" result="BackgroundImageFix"/>
<feBlend mode="normal" in="SourceGraphic" in2="BackgroundImageFix" result="shape"/>
<feColorMatrix in="SourceAlpha" type="matrix" values="0 0 0 0 0 0 0 0 0 0 0 0 0 0 0 0 0 0 127 0" result="hardAlpha"/>
<feOffset dy="19.8154"/>
<feGaussianBlur stdDeviation="14.8616"/>
<feComposite in2="hardAlpha" operator="arithmetic" k2="-1" k3="1"/>
<feColorMatrix type="matrix" values="0 0 0 0 0.556863 0 0 0 0 0.533333 0 0 0 0 0.494118 0 0 0 0.56 0"/>
<feBlend mode="normal" in2="shape" result="effect1_innerShadow_574_16"/>
</filter>
<clipPath id="clip0_574_16">
<rect width="1200" height="286.594" fill="white" transform="translate(0.558838 0.16626)"/>
</clipPath>
</defs>
</svg>
