<svg width="18" height="18" viewBox="0 0 18 18" fill="none" xmlns="http://www.w3.org/2000/svg">
<path fill-rule="evenodd" clip-rule="evenodd" d="M8.67194 0.0460606C8.86608 0.0460606 9.05227 0.123183 9.18954 0.260461C9.32682 0.397739 9.40394 0.583928 9.40394 0.778069V16.3943C9.40394 16.5884 9.32682 16.7746 9.18954 16.9119C9.05227 17.0491 8.86608 17.1263 8.67194 17.1263C8.4778 17.1263 8.29161 17.0491 8.15433 16.9119C8.01705 16.7746 7.93993 16.5884 7.93993 16.3943V0.778069C7.93993 0.583928 8.01705 0.397739 8.15433 0.260461C8.29161 0.123183 8.4778 0.0460606 8.67194 0.0460606ZM4.76789 2.97409C4.96203 2.97409 5.14822 3.05122 5.2855 3.1885C5.42278 3.32577 5.4999 3.51196 5.4999 3.7061V13.4662C5.4999 13.6604 5.42278 13.8465 5.2855 13.9838C5.14822 14.1211 4.96203 14.1982 4.76789 14.1982C4.57375 14.1982 4.38756 14.1211 4.25028 13.9838C4.113 13.8465 4.03588 13.6604 4.03588 13.4662V3.7061C4.03588 3.51196 4.113 3.32577 4.25028 3.1885C4.38756 3.05122 4.57375 2.97409 4.76789 2.97409ZM12.576 2.97409C12.7701 2.97409 12.9563 3.05122 13.0936 3.1885C13.2309 3.32577 13.308 3.51196 13.308 3.7061V13.4662C13.308 13.6604 13.2309 13.8465 13.0936 13.9838C12.9563 14.1211 12.7701 14.1982 12.576 14.1982C12.3818 14.1982 12.1957 14.1211 12.0584 13.9838C11.9211 13.8465 11.844 13.6604 11.844 13.4662V3.7061C11.844 3.51196 11.9211 3.32577 12.0584 3.1885C12.1957 3.05122 12.3818 2.97409 12.576 2.97409ZM0.863845 6.87814C1.05799 6.87814 1.24417 6.95526 1.38145 7.09254C1.51873 7.22982 1.59585 7.41601 1.59585 7.61015V9.56217C1.59585 9.75631 1.51873 9.9425 1.38145 10.0798C1.24417 10.2171 1.05799 10.2942 0.863845 10.2942C0.669704 10.2942 0.483514 10.2171 0.346236 10.0798C0.208958 9.9425 0.131836 9.75631 0.131836 9.56217V7.61015C0.131836 7.41601 0.208958 7.22982 0.346236 7.09254C0.483514 6.95526 0.669704 6.87814 0.863845 6.87814ZM16.48 6.87814C16.6742 6.87814 16.8604 6.95526 16.9976 7.09254C17.1349 7.22982 17.212 7.41601 17.212 7.61015V9.56217C17.212 9.75631 17.1349 9.9425 16.9976 10.0798C16.8604 10.2171 16.6742 10.2942 16.48 10.2942C16.2859 10.2942 16.0997 10.2171 15.9624 10.0798C15.8251 9.9425 15.748 9.75631 15.748 9.56217V7.61015C15.748 7.41601 15.8251 7.22982 15.9624 7.09254C16.0997 6.95526 16.2859 6.87814 16.48 6.87814Z" fill="#8E887E"/>
</svg>
