<svg width="41" height="42" viewBox="0 0 41 42" fill="none" xmlns="http://www.w3.org/2000/svg">
<path d="M9.45845 31.8098C14.835 37.1863 22.125 40.2104 29.7286 40.2184C32.3731 40.2199 34.9221 39.2296 36.872 37.4432C38.4489 35.9985 39.5413 34.1181 40.0229 32.0581C40.2302 31.1715 39.7255 30.3021 38.911 29.895L30.992 25.9369C30.2806 25.5814 29.4333 25.6337 28.7711 26.0741L23.6004 29.5129C23.3937 29.6513 23.156 29.7364 22.9085 29.7608C22.661 29.7852 22.4112 29.748 22.1815 29.6525C17.4139 27.6471 13.6211 23.8543 11.6157 19.0867C11.5214 18.8572 11.4852 18.608 11.5102 18.3612C11.5353 18.1144 11.6207 17.8775 11.7591 17.6716L15.1979 12.5009C15.6383 11.8387 15.6906 10.9914 15.3351 10.28L11.3767 2.36044C10.9698 1.54625 10.1008 1.04153 9.21437 1.24839C7.15407 1.72921 5.27307 2.82097 3.82769 4.39743C2.04057 6.34664 1.04935 8.89514 1.0498 11.5396C1.0578 19.1432 4.08187 26.4332 9.45845 31.8098Z" stroke="#8E887E" stroke-width="1.8"/>
</svg>
