<svg width="56" height="56" viewBox="0 0 56 56" fill="none" xmlns="http://www.w3.org/2000/svg">
<path d="M27.5721 55.1456C12.3678 55.1456 -0.000976562 42.7768 -0.000976562 27.5726C-0.000976562 12.3683 12.3678 -0.000488281 27.5721 -0.000488281C42.7763 -0.000488281 55.1451 12.3683 55.1451 27.5726C55.1451 42.7768 42.7763 55.1456 27.5721 55.1456ZM27.5721 2.29727C13.6362 2.29727 2.29678 13.6367 2.29678 27.5726C2.29678 41.5084 13.6362 52.8479 27.5721 52.8479C41.5079 52.8479 52.8474 41.5084 52.8474 27.5726C52.8474 13.6367 41.5079 2.29727 27.5721 2.29727Z" fill="#8E887E"/>
<path d="M21.8282 41.3589C21.6811 41.3589 21.5295 41.3314 21.3893 41.2716C20.9596 41.0947 20.6793 40.6742 20.6793 40.2101V33.3168C20.6793 33.0112 20.8011 32.7194 21.0148 32.5034L26.4375 27.0807L17.8002 32.014C17.4303 32.2254 16.9753 32.2139 16.6123 31.9841L9.719 27.5885C9.35366 27.3564 9.15146 26.9382 9.19282 26.5086C9.23648 26.0789 9.5168 25.7089 9.91661 25.5504L39.7874 13.8617C40.1803 13.7147 40.6146 13.7813 40.9363 14.0455C41.2603 14.3098 41.4119 14.728 41.3384 15.1393L36.7429 40.4146C36.6786 40.7707 36.4488 41.0763 36.1248 41.2372C35.8008 41.398 35.4194 41.398 35.0977 41.2372L26.6466 37.0116L22.637 41.0212C22.421 41.2418 22.1269 41.3589 21.8282 41.3589ZM26.4237 34.4657C26.5983 34.4657 26.7729 34.5047 26.9384 34.5875L34.7576 38.4982L38.7121 16.7546L12.8623 26.8693L17.2671 29.6772L32.7471 20.8308C33.248 20.5482 33.8822 20.6746 34.2314 21.1295C34.5807 21.5868 34.537 22.2324 34.1303 22.6391L22.977 33.7924V37.4367L25.6103 34.8035C25.8309 34.5806 26.125 34.4657 26.4237 34.4657Z" fill="#8E887E"/>
</svg>
