<svg width="56" height="56" viewBox="0 0 56 56" fill="none" xmlns="http://www.w3.org/2000/svg">
<path d="M43.5126 33.2035L34.6893 28.7918C34.5156 28.7052 34.3222 28.666 34.1285 28.6781C33.9349 28.6902 33.7479 28.7532 33.5863 28.8607L28.9982 31.9213C26.4761 30.7118 24.4422 28.6779 23.2327 26.1558L26.2933 21.5676C26.4008 21.4061 26.4637 21.2191 26.4758 21.0254C26.4879 20.8318 26.4487 20.6384 26.3622 20.4647L21.9505 11.6413C21.859 11.4572 21.7178 11.3022 21.5429 11.1941C21.368 11.0859 21.1663 11.0288 20.9606 11.0292C18.328 11.0292 15.8032 12.075 13.9417 13.9366C12.0801 15.7981 11.0343 18.3229 11.0343 20.9555C11.0409 27.0963 13.4832 32.9836 17.8254 37.3258C22.1676 41.668 28.0549 44.1103 34.1957 44.1169C36.8283 44.1169 39.3531 43.0711 41.2147 41.2095C43.0762 39.348 44.122 36.8232 44.122 34.1906C44.1221 33.9857 44.0652 33.7848 43.9576 33.6104C43.8499 33.4361 43.6959 33.2952 43.5126 33.2035ZM34.1957 41.911C28.6397 41.9052 23.313 39.6955 19.3844 35.7668C15.4557 31.8382 13.246 26.5115 13.2402 20.9555C13.2399 19.0232 13.9641 17.161 15.27 15.7367C16.5758 14.3125 18.3683 13.4296 20.2934 13.2626L24.0985 20.8756L21.0654 25.4361C20.9643 25.5866 20.9019 25.7597 20.8836 25.94C20.8653 26.1204 20.8918 26.3024 20.9606 26.4701C22.426 29.9539 25.1974 32.7252 28.6811 34.1906C28.8489 34.2603 29.0314 34.2875 29.2123 34.2697C29.3931 34.2519 29.5668 34.1897 29.7178 34.0886L34.2784 31.0555L41.8913 34.8606C41.7236 36.7857 40.8401 38.5778 39.4153 39.8832C37.9905 41.1885 36.128 41.9121 34.1957 41.911ZM27.5782 4.76368e-07C22.7779 -0.000891689 18.0606 1.2514 13.8929 3.633C9.72512 6.0146 6.25132 9.44299 3.81508 13.579C1.37885 17.7151 0.0645932 22.4155 0.00232084 27.2153C-0.0599516 32.0152 1.13192 36.7481 3.46003 40.946L0.178835 50.7868C-0.0155868 51.3698 -0.0438016 51.9954 0.0973525 52.5935C0.238507 53.1917 0.543451 53.7387 0.978008 54.1732C1.41257 54.6078 1.95956 54.9127 2.55769 55.0539C3.15581 55.195 3.78143 55.1668 4.36442 54.9724L14.2052 51.6912C17.8864 53.7309 21.9856 54.9009 26.1888 55.1115C30.392 55.3222 34.5876 54.5679 38.4542 52.9065C42.3209 51.2451 45.7559 48.7206 48.4961 45.5265C51.2363 42.3324 53.2091 38.5534 54.2631 34.479C55.3172 30.4047 55.4246 26.1432 54.5772 22.0209C53.7298 17.8986 51.95 14.0251 49.3742 10.6969C46.7984 7.3688 43.4949 4.67445 39.7169 2.8203C35.9389 0.966149 31.7866 0.00141183 27.5782 4.76368e-07ZM27.5782 52.9402C23.1181 52.9416 18.7366 51.767 14.8753 49.535C14.7075 49.4384 14.5174 49.3871 14.3238 49.3861C14.2047 49.3864 14.0865 49.4059 13.9736 49.444L3.66683 52.8796C3.47249 52.9444 3.26396 52.9538 3.06458 52.9067C2.8652 52.8597 2.68287 52.758 2.53802 52.6132C2.39317 52.4683 2.29152 52.286 2.24447 52.0866C2.19742 51.8873 2.20682 51.6787 2.27163 51.4844L5.70723 41.1776C5.75679 41.0294 5.7743 40.8724 5.75862 40.717C5.74293 40.5616 5.6944 40.4112 5.61624 40.276C2.81951 35.4417 1.69633 29.8196 2.42093 24.2819C3.14554 18.7441 5.67742 13.6003 9.6238 9.64834C13.5702 5.6964 18.7105 3.15729 24.2472 2.42491C29.7839 1.69252 35.4076 2.8078 40.2458 5.59772C45.0839 8.38765 48.8662 12.6963 51.0057 17.8552C53.1452 23.014 53.5225 28.7348 52.0789 34.13C50.6353 39.5251 47.4515 44.2931 43.0216 47.6941C38.5916 51.0952 33.1631 52.9393 27.5782 52.9402Z" fill="#8E887E"/>
</svg>
